<svg width="48" height="48" viewBox="0 0 48 48" xmlns="http://www.w3.org/2000/svg"><g fill="none" fill-rule="evenodd"><path fill-opacity=".01" fill="#FFF" d="M0 0h48v48H0z"/><path d="M24 9.23c8.154 0 14.77 6.617 14.77 14.77 0 8.153-6.616 14.77-14.77 14.77-8.153 0-14.77-6.617-14.77-14.77 0-8.153 6.617-14.77 14.77-14.77zm0 1.564c-7.293 0-13.2 5.913-13.2 13.206 0 7.293 5.907 13.2 13.2 13.2 7.293 0 13.2-5.907 13.2-13.2 0-7.293-5.907-13.206-13.2-13.206zm9.26 4.402v7.381c0 4.256-3.227 8.499-3.412 8.774-.081-.167-1.578-2.124-2.565-4.675-.7 3.272-2.778 6.142-3.14 6.648l-.045.064.002.002.001.003h-.006l.003-.005-.013-.023c-.167-.277-1.592-2.193-2.545-4.659-.742 3.471-3.028 6.485-3.185 6.719-.125-.26-3.419-4.52-3.419-8.775v-7.387h5.75v-2.031h5.743v-2.036h6.831zM20.686 20.35h-4.668v6.414c0 3.233 2.201 6.186 2.34 6.414.133-.228 2.328-3.181 2.328-6.414V20.35zm-4.428 3.258l3.568 6.275c-.475 1.27-1.02 2.144-1.468 2.865-.993-1.499-2.1-3.808-2.1-5.876v-3.264zm10.171-5.294h-4.661v6.414c0 3.238 2.2 6.192 2.333 6.413.133-.221 2.328-3.175 2.328-6.413v-6.414zm-4.421 3.258l3.56 6.274c-.474 1.272-1.018 2.144-1.467 2.865-.986-1.499-2.093-3.801-2.093-5.876v-3.263zm10.17-5.295h-4.667v6.414c0 3.245 2.2 6.192 2.334 6.414.139-.222 2.334-3.17 2.334-6.414v-6.414zm-4.427 3.264l3.567 6.274c-.474 1.272-1.018 2.138-1.467 2.86-1-1.493-2.1-3.802-2.1-5.877v-3.257zm-7.305 1.05l-.001 5.393c-.005.97-.04 1.568-.076 1.912l-4.111-7.305h4.188zm5.743-2.037l-.001 5.393c-.005.97-.04 1.569-.075 1.919l-4.105-7.312h4.18zm5.749-2.037v5.143c0 1.12-.038 1.79-.076 2.17l-4.111-7.313h4.187z" fill="#231F20"/></g></svg>