<svg width="48" height="48" viewBox="0 0 48 48" xmlns="http://www.w3.org/2000/svg"><g fill="none" fill-rule="evenodd"><path fill-opacity=".01" fill="#FFF" d="M0 0h48v48H0z"/><path d="M19.788 33.6c.44.312 1.395.283 2.22.858.475.33 1.237 1.093 1.87 1.644 1.213 1.054 2.814 2.012 5.72 2.19-.096.134-.235.325-.307.374a.418.418 0 0 1-.384.09c-3.447-.814-3.701-1.648-5.163-1.724-1.122-.058-1.899.383-2.824.292-1.089-.1-2.062-.67-2.863-.839 1.165-.618 3.078-.776 4.042-.402.35.134.254-.125.053-.226-1.03-.517-1.836-1.351-2.364-2.257zm2.786 3.825c.182-.048.494-.072.844-.03-1.376.394-2.565 1.055-4.186 1.361-.081.015-.177.02-.245-.033-.072-.048-.138-.13-.364-.431 1.463-.039 2.934-.604 3.95-.867zm5.959-3.94c-.7 1.213-1.42 1.788-2.426 2.315-.197.106-.192.32.149.191.896-.354 2.388-.225 4.037.384-.791.105-1.554.58-2.522.79a4.05 4.05 0 0 1-1.117.077c-.465-.019-1.156-.22-2.019-1.092.787-.556 1.089-1.37 1.76-1.806.69-.451 1.28-.35 2.138-.858zm-13.51 1.429c.55.047 1.327-.11 2.32.009.705.082 1.596.206 2.421.575-.963-.115-2.153 1.002-3.576.038-.187-.124-.835-.43-1.166-.622zm15.955.009c.993-.12 1.77.038 2.32-.01-.33.192-.977.499-1.164.624-1.424.963-2.613-.154-3.577-.039.825-.369 1.717-.493 2.421-.575zM17.08 32.355c.743.527 1.15.373 2.081 1.236.336.307.73 1.241 1.314 1.692-1.544-.374-2.934-1.64-3.395-2.928zm14.163 0c-.46 1.289-1.85 2.554-3.394 2.928.584-.45.978-1.385 1.313-1.692.925-.863 1.338-.71 2.081-1.236zm-18.334.69c1.02.22 2.699.244 4.334 1.399-1.184-.235-2.517.191-3.543-.724a17.324 17.324 0 0 0-.79-.675zm22.553 0c-.124.09-.489.402-.796.675-1.02.916-2.353.489-3.538.724 1.635-1.155 3.308-1.179 4.334-1.4zm-20.62-2.396c.594.713.766.627 1.495 1.404.394.411.738 1.442 1.146 1.864-1.482-.556-2.345-1.682-2.642-3.268zm18.688 0c-.297 1.586-1.165 2.712-2.642 3.268.408-.422.753-1.452 1.141-1.864.734-.777.906-.69 1.501-1.404zm-22.189.124c.979.312 2.56.796 3.788 2.19-.81-.312-2.263-.177-3.184-1.38-.235-.306-.503-.7-.604-.81zm25.689 0c-.1.11-.369.504-.604.81-.92 1.203-2.373 1.068-3.184 1.38 1.223-1.395 2.81-1.878 3.788-2.19zm-23.872-1.955c.393.613.691.829 1.05 1.51.33.632.48 1.39.662 1.772-.815-.647-1.99-1.643-1.712-3.282zm22.05 0c.283 1.639-.896 2.636-1.706 3.283.182-.384.325-1.141.661-1.774.354-.68.657-.895 1.045-1.509zM24.185 13.421a1.36 1.36 0 0 1 1.232.79c.244-.359.661-.598 1.131-.598.629 0 1.156.421 1.314.992.25-.264.604-.432.997-.432.695 0 1.266.523 1.352 1.194.23-.178.518-.283.83-.283.752 0 1.361.613 1.361 1.365 0 .614-.412 1.136-.973 1.304v1.217h2.498l-2.412 2.593v6.416c0 1.084-.407 1.874-1.798 2.047-1.323.167-2.857.33-3.571.412-.93.105-1.434.254-1.966 1.025-.537-.771-1.045-.92-1.975-1.025-.71-.082-2.249-.245-3.572-.412-1.386-.173-1.794-.963-1.794-2.047v-6.426l-2.435-2.583h2.522v-1.212a1.367 1.367 0 0 1-.978-1.309c0-.752.608-1.36 1.361-1.36.322 0 .614.105.844.292a1.368 1.368 0 0 1 1.357-1.208c.388 0 .743.168.992.432a1.362 1.362 0 0 1 2.446-.388c.215-.47.69-.796 1.237-.796zm14.45 14.467c-.072.14-.287.542-.455.92-.446 1.016-1.53 1.587-2.584 1.956.59-1.14 1.774-2.1 3.039-2.876zm-28.906 0c1.27.776 2.455 1.735 3.045 2.876-1.055-.37-2.139-.94-2.59-1.955-.162-.379-.383-.782-.455-.92zm14.331-.556h-3.203v2.41c.397.046.885.1 1.294.146l.442.051c.628.067 1.208.355 1.467.575v-3.182zm6.918.681H24.31v2.492c.26-.216.825-.499 1.467-.57.921-.106 3.06-.34 3.86-.432 1.036-.12 1.314-.632 1.342-1.49zm-19.182-2.042c.11.772.906 1.309.82 2.785-.02.33.067.661.1 1.006-1.093-1.462-1.26-2.564-.92-3.79zm24.778 0c.34 1.228.167 2.33-.926 3.791.039-.345.125-.676.106-1.006-.086-1.476.704-2.013.82-2.785zm-9.599 2.43c.063-.048.182-.082.25-.038.062.048.067.177.023.287l-.028.106c-.015.067.014.09.105.062.034-.01.11-.033.168-.062.172-.072.268-.043.408-.02.066.01.124.01.162-.01.025-.01.068-.023.106-.047.062-.038.153.005.091.106-.024.038-.077.143-.1.186-.082.178-.183.326-.524.37a3.927 3.927 0 0 1-.536.004c-.144-.015-.245-.134-.202-.306.014-.068.039-.116.048-.216.005-.091.005-.206-.1-.192-.082.014-.11-.053-.048-.096a3.18 3.18 0 0 0 .177-.134zm-6.372-.235h-3.207c.019.264.048.503.167.695h3.04v-.695zm18.905-3.34a6.41 6.41 0 0 0-.187.935c-.173 1.365-1.587 1.93-2.172 2.4.36-1.207 1.28-2.357 2.359-3.335zm-30.646 0c1.078.978 1.998 2.128 2.353 3.336-.58-.47-1.999-1.036-2.167-2.401a7.185 7.185 0 0 0-.186-.935zm22.116 1.826H24.31v1.117h6.67v-1.117zm-10.375-1.917h-3.207v2.344h3.207v-2.344zm-9.272-1.61c.066 1.006.235 1.577-.025 2.64-.076.321-.105.666-.148 1.064-.647-1.26-.753-2.31.173-3.704zm25.708 0c.925 1.395.82 2.444.167 3.705-.038-.398-.071-.743-.148-1.065-.254-1.064-.086-1.634-.02-2.64zm-6.06 1.605h-6.67v1.673h6.67V24.73zm-6.919.834h-3.203v.695h3.203v-.695zm4.785-.455c.062-.048.182-.077.244-.034.068.044.072.173.03.283-.01.033-.025.072-.03.106-.019.071.015.09.101.062.039-.01.11-.034.173-.062.172-.073.268-.044.403-.02.071.01.13.01.167-.01.024-.01.067-.023.101-.047.062-.039.158.004.096.11a1.632 1.632 0 0 0-.101.182c-.081.178-.187.326-.522.374-.091.01-.384.014-.538 0-.143-.015-.244-.134-.2-.307.013-.067.033-.115.042-.21.01-.097.005-.211-.1-.197-.077.014-.11-.053-.048-.096.067-.048.129-.091.182-.134zm-3.385 0c.058-.048.177-.077.245-.034.062.044.067.173.023.283-.01.033-.019.072-.028.106-.015.071.014.09.105.062.034-.01.11-.034.168-.062.173-.073.269-.044.408-.02.066.01.124.01.162-.01.025-.01.068-.023.106-.047.062-.039.153.004.091.11a1.55 1.55 0 0 0-.096.182c-.086.178-.187.326-.528.374a4.01 4.01 0 0 1-.536 0c-.144-.015-.245-.134-.202-.307.015-.067.039-.115.049-.21.004-.097.004-.211-.101-.197-.082.014-.11-.053-.048-.096.067-.048.124-.091.182-.134zM8.866 21.44c.988 1.264 1.261 2.764 1.275 4.096-.205-.215-.455-.584-.666-.79-.95-.935-.45-2.248-.609-3.307zm30.637 0c-.163 1.058.34 2.371-.609 3.306-.216.206-.465.575-.666.79.014-1.332.282-2.832 1.275-4.097zM24.06 22.803h-6.664v1.677h6.664v-1.677zm6.918-.68h-3.207v2.357h3.207v-2.358zm-10.873 1.054c.062-.048.182-.077.244-.034.067.043.067.173.029.288a.336.336 0 0 0-.029.1c-.019.072.01.091.1.067.04-.014.11-.038.174-.062.172-.076.263-.043.402-.024.067.01.13.01.168-.01.024-.01.067-.023.101-.048.062-.037.158.006.091.11-.02.034-.077.14-.096.183-.087.177-.187.326-.528.374-.09.01-.378.014-.532 0-.149-.015-.245-.13-.206-.307.019-.067.038-.115.048-.211.01-.09.004-.206-.1-.191-.078.01-.111-.058-.048-.101.066-.043.129-.09.182-.134zm7.417-.216H24.31v.686h3.212v-.686zm9.004-2.736c.901.853 1.515 1.548 1.4 3.292-.049-.067-.202-.379-.394-.604-.853-.992-.719-1.845-1.006-2.688zm-24.682 0c-.288.843-.153 1.696-1.012 2.688-.192.225-.34.537-.388.604-.116-1.744.498-2.44 1.4-3.292zm5.552 1.212v1.122h6.664v-1.117l-6.664-.005zM38.674 18.4c.167.762.877 1.989.24 3.168-.164.301-.409.575-.475.8-.207-1.485-.466-2.253.235-3.968zm-28.983 0c.705 1.715.446 2.483.24 3.968-.068-.225-.317-.499-.48-.8-.638-1.18.077-2.406.24-3.168zm17.817 1.116H24.3v2.353h3.208v-2.353zm-3.458 0h-8.385l1.582 1.673h6.803v-1.673zm7.854.849h-4.133v.685h3.49l.643-.685zm4.099-2.713c1.117.647 1.817 1.64 1.712 3.235-.043-.062-.202-.369-.389-.599-.637-.78-1.093-1.797-1.323-2.636zm-23.642 0c-.23.839-.68 1.855-1.318 2.636-.187.23-.346.537-.393.6-.106-1.597.595-2.589 1.711-3.236zm5.768 2.238c.063-.052.182-.081.245-.038.067.043.067.177.028.288a.377.377 0 0 0-.028.1c-.02.072.014.096.1.067.039-.01.11-.038.173-.062.173-.072.268-.043.403-.024.067.014.129.014.167-.005.025-.014.068-.028.101-.048.063-.038.159.005.091.105-.019.039-.076.14-.096.188-.08.177-.187.326-.522.369a3.27 3.27 0 0 1-.537 0c-.149-.01-.245-.13-.206-.302.019-.067.038-.115.048-.216.01-.091.005-.206-.101-.192-.077.01-.11-.053-.048-.096.067-.047.13-.09.182-.134zm3.582 0c.062-.052.182-.081.249-.038.062.043.067.177.024.288l-.029.1c-.014.072.015.096.101.067.038-.01.11-.038.172-.062.173-.072.269-.043.408-.024.067.014.125.014.163-.005.024-.014.067-.028.105-.048.063-.038.154.005.091.105-.023.039-.076.14-.1.188-.082.177-.187.326-.523.369a3.27 3.27 0 0 1-.537 0c-.143-.01-.244-.13-.2-.302.013-.067.037-.115.047-.216.005-.091.005-.206-.101-.192-.081.01-.115-.053-.053-.096.068-.047.13-.09.183-.134zm-10.745-4.37c.278 1.361-.019 2.463-.633 3.776.02-.09-.258-1.092-.258-1.524.004-.93.637-1.624.891-2.252zm26.437 0c.254.628.882 1.322.887 2.252.005.432-.273 1.433-.259 1.524-.609-1.313-.906-2.415-.628-3.776zm-13.228 1.37c-2.54 0-5.077.734-6.798 2.085h13.606c-1.669-1.366-4.277-2.084-6.808-2.084zm0 .499c1.856 0 3.74.408 5.058 1.145H19.107c1.415-.737 3.208-1.145 5.068-1.145zm.005-3.627a1.017 1.017 0 0 0-.968 1.327c-.135.01-.264.019-.399.033a1.018 1.018 0 0 0-1.165-1.16c-.551.092-.93.61-.844 1.165.02.105.053.206.096.297-.129.029-.253.062-.383.096a1.015 1.015 0 1 0-1.98.326c.033.1.081.192.139.278-.125.048-.244.1-.365.153a1.017 1.017 0 0 0-1.472-.733 1.015 1.015 0 0 0-.004 1.802l1.294.685.163-1.275c.245-.11.49-.21.738-.311l1.027.776.364-1.231c.26-.067.518-.135.781-.188l.892.93.552-1.16c.268-.028.532-.047.805-.062l.729 1.055.724-1.055c.268.015.537.034.8.063l.557 1.16.886-.93c.264.052.523.115.782.187l.364 1.231 1.027-.776c.249.096.498.201.738.311l.168 1.275 1.29-.685c.177-.096.33-.24.431-.437a1.01 1.01 0 0 0-.437-1.365 1.018 1.018 0 0 0-1.37.436.98.98 0 0 0-.096.297c-.125-.052-.245-.105-.37-.153a1.02 1.02 0 0 0-.504-1.562 1.02 1.02 0 0 0-1.337.953c-.124-.029-.254-.062-.384-.09a1.018 1.018 0 1 0-1.913-.618 1.144 1.144 0 0 0 0 .315c-.128-.014-.263-.024-.393-.033a1.015 1.015 0 0 0-.964-1.327zm-10.366 1.346c-.201.364-.633 1.26-1.616 1.926a15.01 15.01 0 0 0-.824.59c.364-1.213 1.045-2.037 2.44-2.516zm20.741 0c1.396.48 2.076 1.304 2.436 2.516-.063-.062-.547-.408-.82-.59-.983-.666-1.415-1.562-1.616-1.926zm-3.999 1.088a.548.548 0 0 1 .74-.235.542.542 0 0 1 .234.733.554.554 0 0 1-.739.24.548.548 0 0 1-.235-.738zm-13.496-.23a.54.54 0 0 1 .729.23.545.545 0 0 1-.23.733.547.547 0 0 1-.734-.235.535.535 0 0 1 .235-.728zm-4.33-3.063c-.024 1.155-.556 2.454-1.299 3.345.034-.325-.076-.56-.067-.867.034-.82.418-1.376.638-1.644.22-.268.542-.546.729-.834zm22.904 0c.192.288.513.566.733.834.221.269.605.825.633 1.644.015.307-.096.542-.062.867-.748-.89-1.276-2.19-1.304-3.344zm-7.307 2.45a.552.552 0 0 1 .695-.35.553.553 0 1 1-.696.35zm-9-.346c.288-.096.6.062.692.35a.543.543 0 0 1-.346.69.551.551 0 0 1-.695-.35.55.55 0 0 1 .35-.69zm2.393-.584a.553.553 0 0 1 .633.455.553.553 0 0 1-1.088.177.554.554 0 0 1 .455-.632zm4.821.002l.089.007a.54.54 0 1 1-.176 1.067.54.54 0 0 1 .176-1.067zm-2.361-.194a.546.546 0 0 1 0 1.093.546.546 0 1 1 0-1.093zm-8.764-.753c-.38.34-.93.969-1.808 1.261-.264.09-.551.124-.858.273.614-1.025 1.198-1.48 2.666-1.534zm17.538 0c1.467.053 2.047.509 2.66 1.534-.302-.149-.59-.182-.853-.273-.882-.292-1.428-.92-1.807-1.26zM15.339 10.91c-.158.383-.49 1.318-1.395 2.085-.255.215-.7.608-.758.68.23-1.246.82-2.137 2.153-2.765zm17.686 0c1.338.628 1.923 1.519 2.153 2.765-.057-.072-.503-.465-.752-.68-.906-.767-1.237-1.702-1.4-2.085zm-18.588 2.123c.614-.747 1.463-1.074 2.518-.954-.236.245-.83.753-1.645.896a5.349 5.349 0 0 1-.873.058zm16.977-.954c1.055-.12 1.904.207 2.518.954-.317 0-.628-.015-.873-.058-.815-.143-1.41-.651-1.645-.896zm-2.257-1.188c1.088-.201 2.052.134 2.68.81a5.25 5.25 0 0 1-.911.005c-.854-.092-1.51-.576-1.77-.815zm-12.629.81c.628-.676 1.596-1.011 2.685-.81-.264.24-.916.723-1.774.814-.254.03-.58.02-.91-.004zm13.87-2.138c1.448.465 1.96.988 2.388 2.119-1.333-.422-1.851-1.117-2.388-2.119zm-12.427 0c-.537 1.002-1.055 1.697-2.388 2.119.427-1.131.94-1.654 2.388-2.118zm9.172-.302c1.683-.172 2.555.403 3.202 1.194-.402 0-.805-.02-1.112-.072-1.035-.177-1.687-.843-2.09-1.122zm-9.12 1.194c.648-.791 1.52-1.366 3.203-1.194-.402.278-1.055.944-2.09 1.122a7.09 7.09 0 0 1-1.112.072z" fill="#000"/></g></svg>