<svg width="48" height="48" viewBox="0 0 48 48" xmlns="http://www.w3.org/2000/svg"><g fill="none" fill-rule="evenodd"><path fill-opacity=".01" fill="#FFF" d="M0 0h48v48H0z"/><path d="M29.25 20.308l16.517.212c.139.002.263.102.333.268.04.095.057.202.052.308a.776.776 0 0 1-.06.357c-.172.388-.526.972-1.242 1.552a4.894 4.894 0 0 1-2.001.981l-15.997 3.667a1.572 1.572 0 0 1-1.023-.11 3.567 3.567 0 0 0-1.488-.33h-.681c-.507 0-1.008.11-1.49.33a1.613 1.613 0 0 1-1.022.11L5.151 23.986a4.894 4.894 0 0 1-2.001-.981c-.716-.58-1.07-1.164-1.241-1.552a.783.783 0 0 1-.061-.357.723.723 0 0 1 .052-.308c.07-.166.195-.266.333-.268l16.516-.212c.43-.01.853.096 1.254.303l.662.34c.353.182.724.274 1.103.274h4.464c.379 0 .75-.092 1.103-.274l.662-.34a2.603 2.603 0 0 1 1.253-.303zm-10.467.35h-.03l-16.517.212c-.058 0-.09.055-.103.087a.29.29 0 0 0 .004.229c.156.333.481.838 1.15 1.35a4.78 4.78 0 0 0 1.909.885l15.997 3.469c.297.065.606.034.892-.09a3.955 3.955 0 0 1 1.575-.33h.68c.536 0 1.066.11 1.574.33.287.124.596.155.893.09l15.997-3.469a4.783 4.783 0 0 0 1.91-.884c.668-.513.993-1.018 1.149-1.351a.291.291 0 0 0 .004-.229c-.014-.032-.045-.086-.103-.087l-16.516-.212h-.03c-.387 0-.765.093-1.124.278l-.662.34a2.61 2.61 0 0 1-1.2.298h-4.464c-.412 0-.816-.1-1.2-.297l-.662-.34a2.439 2.439 0 0 0-1.123-.28zM4.017 21.667l7.726.416c.406.022.801.2 1.145.516l1.86 1.714c1.297 1.013 2.12 1.135 2.12 1.135-.402.03-1.517-.059-2.421-.82l-1.837-1.457a2.225 2.225 0 0 0-1.192-.517l-6.53-.642a1.78 1.78 0 0 1-.871-.345zm39.88 0a1.78 1.78 0 0 1-.872.345l-6.53.642c-.418.04-.826.217-1.191.517l-1.837 1.458c-.904.76-2.02.85-2.422.819 0 0 .823-.122 2.12-1.135l1.861-1.714c.343-.316.738-.494 1.145-.516zm-12.278.607c.086 0 .134.162.08.271l-.518 1.06c-.46.941-1.117 1.602-1.85 1.75a1.772 1.772 0 0 1-.35.034h-9.957c-.118 0-.235-.011-.35-.035-.733-.147-1.39-.808-1.85-1.748l-.519-1.06c-.053-.11-.005-.272.08-.272zm-13.175.941c-.493 0-.731.193-.731.492 0 .292.235.491.721.491.188 0 .387-.036.42-.042l.03-.19c-.042.006-.204.038-.377.038-.27 0-.453-.085-.453-.297 0-.209.174-.298.458-.298.161 0 .33.03.372.038l-.03-.19c-.05-.008-.221-.042-.41-.042zm6.328-.001c-.237 0-.547.043-.547.275 0 .21.185.26.435.301.257.042.377.053.377.132 0 .07-.077.108-.297.108-.252 0-.462-.081-.49-.092l-.033.19c.036.01.234.07.537.07.334 0 .656-.076.656-.314 0-.163-.131-.246-.503-.303-.154-.023-.316-.039-.316-.117 0-.058.044-.084.264-.084.22 0 .4.061.43.07l.028-.175c-.038-.009-.256-.061-.541-.061zm4.787.026c-.25 0-.506.013-.53.014v.905h.346v-.744c.047-.004.1-.012.18-.012.084 0 .145.003.196.012.104.022.14.066.138.126-.001.06-.046.117-.154.137a1.301 1.301 0 0 1-.283.011l.393.47h.44l-.398-.377a.477.477 0 0 0 .186-.044c.105-.045.157-.117.158-.197 0-.106-.051-.197-.245-.255a1.543 1.543 0 0 0-.427-.046zm-1.002.014h-1.14v.905h1.154v-.152h-.807v-.231h.777v-.152h-.777v-.218h.792v-.152zm-2.31 0H25.9v.905h1.132v-.17h-.786v-.735zm-3.197 0h-.402l.491.537v.368h.346v-.377l.455-.528h-.234l-.322.382-.334-.382zm-1.318-.014c-.25 0-.506.013-.531.014v.905h.346v-.744c.047-.004.1-.012.181-.012.084 0 .145.003.195.012.105.022.14.066.139.126 0 .06-.047.117-.154.137a1.315 1.315 0 0 1-.284.011l.394.47h.44l-.399-.377a.475.475 0 0 0 .186-.044c.106-.045.157-.117.158-.197 0-.106-.051-.197-.245-.255a1.54 1.54 0 0 0-.426-.046zm-2.015.014h-.346v.905h.346v-.369h.602v.369h.345v-.905h-.345v.368h-.602v-.368zm13.877-.106c-.214.228-.464.35-.72.35H31.82c.037-.077.093-.203.17-.35zm-17.671 0c.077.148.133.273.17.35H15.04c-.257 0-.507-.122-.72-.35zm18.824-.874c-.223.228-.484.35-.752.35h-1.778c.052-.112.102-.23.147-.35zm-19.198 0c.046.12.096.238.147.35h-1.778c-.267 0-.529-.122-.751-.35z" fill="#000"/></g></svg>