<svg width="48" height="48" viewBox="0 0 48 48" xmlns="http://www.w3.org/2000/svg"><g fill="none" fill-rule="evenodd"><path fill-opacity=".01" fill="#FFF" d="M0 0h48v48H0z"/><path d="M24.408 9.232c4.236.015 8.627.264 10.324.432 1.998.204 2.93 1.224 2.93 3.21 0 3.762-.14 9.633-.398 13.101-.227 3.077-.407 5.505-4.224 7.834-2.719 1.66-5.438 3.088-8.981 4.926l-.063.034-.06-.034c-3.535-1.832-6.25-3.26-8.979-4.926-3.815-2.328-3.994-4.757-4.224-7.834-.256-3.452-.395-9.329-.395-13.1 0-1.987.93-3.007 2.928-3.211 1.75-.174 6.373-.433 10.732-.433zm-.41 1.19c-4.31 0-8.883.257-10.613.428-1.392.144-1.86.653-1.86 2.025 0 3.746.136 9.579.392 13.013.216 2.946.362 4.895 3.656 6.903 2.591 1.58 4.972 2.839 8.308 4.576l.117.057.119-.057c3.445-1.797 5.725-3 8.308-4.576 3.292-2.008 3.437-3.955 3.655-6.9.255-3.441.393-9.272.393-13.016 0-1.372-.468-1.881-1.86-2.025-1.732-.171-6.302-.429-10.615-.429zm7.379 6.384c2.327 0 3.29 2.217 3.164 4.044h-.559c-.467 2.583-1.777 4.77-2.759 4.77-.3 0-.458-.23-.458-.607 0-.911.619-1.864.619-3.606 0-.802-.26-1.305-.86-1.305-.409 0-.744.432-.943.904.365 1.3.31 2.39-.724 2.854-.512.228-1.129.5-1.129.5l-.705 2.992a2.763 2.763 0 0 1-.235.586l-.983 1.692-.356 1.792c-.17.846-.77.848-1.449.846-.679.002-1.28 0-1.449-.846l-.355-1.792s-.862-1.482-.982-1.692a2.818 2.818 0 0 1-.24-.586l-.703-2.992s-.616-.272-1.127-.5c-1.034-.464-1.089-1.553-.725-2.854-.199-.472-.534-.904-.943-.904-.6 0-.86.503-.86 1.305 0 1.742.619 2.695.619 3.606 0 .378-.157.608-.458.608-.984 0-2.292-2.188-2.757-4.771h-.56c-.126-1.827.837-4.044 3.163-4.044 1.883 0 3.72 1.506 4.818 4.981l-.712.499.343 1.709 1.328.552.244 1.68-.65-.798-.694-.29.214 1.086 1.2.5.421 2.903-.294.927 1.16.461 1.158-.461-.293-.927.42-2.904 1.199-.5.216-1.085-.695.29-.648.797.24-1.679 1.331-.552.34-1.71-.71-.498c1.1-3.475 2.937-4.98 4.818-4.98zm-17.743 4.378c.414 3.257 1.878 6.116 3.343 6.116.482 0 1.072-.282 1.072-1.16a4.93 4.93 0 0 0-.114-1c.157.285.544.994.544 1.889 0 1.049-.73 1.693-1.75 1.693-2.202 0-3.677-2.448-3.695-7.538zm21.332 0c-.016 5.09-1.494 7.538-3.693 7.538-1.021 0-1.751-.644-1.751-1.693 0-.895.386-1.604.542-1.89a5.004 5.004 0 0 0-.111 1.001c0 .878.588 1.16 1.07 1.16 1.466 0 2.931-2.86 3.344-6.116zm-5.954-.168l-.802 1.265-.297 1.306s.29-.125.539-.23c.731-.313.805-1.183.56-2.341zm-10.026 0c-.244 1.158-.17 2.028.563 2.34l.537.23-.298-1.305zm-.524-7.01c2.878 0 4.503 2.282 5.354 4.046l-.412 1.387c-1.488-3.055-3.265-4.659-5.416-4.659-2.326 0-3.463 1.563-3.8 2.057.598-1.506 2.174-2.83 4.274-2.83zm11.076 0c2.1 0 3.674 1.325 4.275 2.83-.336-.493-1.475-2.056-3.802-2.056-2.147 0-3.925 1.604-5.415 4.659l-.411-1.387c.848-1.764 2.478-4.045 5.353-4.045z" fill="#000"/></g></svg>