<svg width="48" height="48" viewBox="0 0 48 48" xmlns="http://www.w3.org/2000/svg"><g fill="none" fill-rule="evenodd"><path fill-opacity=".01" fill="#FFF" d="M0 0h48v48H0z"/><path d="M24 9.23c3.945 0 7.654 1.537 10.443 4.327A14.672 14.672 0 0 1 38.77 24c0 3.945-1.536 7.654-4.326 10.443A14.672 14.672 0 0 1 24 38.77a14.673 14.673 0 0 1-10.443-4.326A14.672 14.672 0 0 1 9.23 24c0-8.144 6.625-14.77 14.77-14.77zm0 .512c-3.808 0-7.389 1.483-10.082 4.176A14.165 14.165 0 0 0 9.742 24c0 3.808 1.483 7.389 4.176 10.082A14.164 14.164 0 0 0 24 38.258c7.862 0 14.258-6.396 14.258-14.258 0-3.808-1.483-7.39-4.176-10.082A14.165 14.165 0 0 0 24 9.742zm0 .587c7.55 0 13.67 6.12 13.67 13.671 0 7.55-6.12 13.67-13.67 13.67S10.33 31.55 10.33 24 16.45 10.33 24 10.33zm0 4.939a8.733 8.733 0 1 0 0 17.465 8.733 8.733 0 0 0 0-17.465zM32.17 24A8.17 8.17 0 0 1 24 32.17V24zM24 15.83V24h-8.17A8.17 8.17 0 0 1 24 15.83zm8.242-2.006l-2.257 2.904.66.808 2.132-.877.008.009-1.302 1.904.654.813 3.31-1.604-.557-.688-2.103.998 1.356-1.92-.597-.737-2.16.927 1.414-1.85-.558-.687zm-16.205.705c-.482-.405-.99-.06-1.354.374l-1.756 2.092 2.76 2.316 1.852-2.206c.423-.504.488-1.004.044-1.437-.29-.281-.737-.366-1.157-.105a.8.8 0 0 0 .005-.538c-.181-.33-.244-.37-.394-.496zm.205 1.769c.125-.15.404-.193.592-.035.213.179.234.45.088.624l-1.1 1.31-.689-.579zm-1.175-.877c.122-.146.398-.14.576.009.195.164.195.396.064.552l-1.043 1.243-.652-.547zm8.017-4.345h-1.082v3.598h.72v-2.512l.948 2.512h.787l.948-2.512v2.512h.72v-3.598h-1.082l-.979 2.563-.98-2.563z" fill="#000"/></g></svg>