<svg width="134" height="70" fill="none" xmlns="http://www.w3.org/2000/svg"><path fill-rule="evenodd" clip-rule="evenodd" d="M66.55 0C50.854.016 38.11 12.717 37.877 28.472H66.55V0Z" fill="#1C418E"/><path fill-rule="evenodd" clip-rule="evenodd" d="M38.42 28.472s3.545-1.719 8.128-2.93c4.582-1.21 5.666-1.729 5.666-1.729s-2.323-3.026-4.456-5.908c-2.132-2.882-3.861-5.85-3.861-5.85s2.993.613 7.032 1.901l6.686 2.133s-.03-4.006-.03-7.58.318-6.773.318-6.773 2.032 2.2 4.266 5.39l4.38 6.254v15.092H38.42Z" fill="#1C418E"/><path fill-rule="evenodd" clip-rule="evenodd" d="M49.02 25.45a633.452 633.452 0 0 1 4.236 3.023H66.55V5.305s-1.426 3.06-2.32 5.468c-.894 2.406-1.78 5.075-1.78 5.075s-1.837-1.401-4.33-3.001a113.076 113.076 0 0 0-5.205-3.11s.623 3.457 1.415 6.18c.793 2.724 1.54 4.9 1.54 4.9l-5.507.068c-4.03.049-5.976.47-5.976.47s1.41 1.813 4.633 4.096ZM66.55 0c15.696.016 28.44 12.717 28.672 28.472H66.55V0Z" fill="#1C418E"/><path fill-rule="evenodd" clip-rule="evenodd" d="M94.679 28.472s-3.545-1.719-8.127-2.93c-4.583-1.21-5.666-1.729-5.666-1.729s2.322-3.026 4.455-5.908c2.133-2.882 3.862-5.85 3.862-5.85s-2.993.613-7.032 1.901l-6.686 2.133s.028-4.006.028-7.58-.316-6.773-.316-6.773-2.033 2.2-4.266 5.39L66.55 13.38v15.092h28.129Z" fill="#1C418E"/><path fill-rule="evenodd" clip-rule="evenodd" d="M84.079 25.45a651.629 651.629 0 0 0-4.235 3.023H66.55V5.305s1.426 3.06 2.32 5.468a179.604 179.604 0 0 1 1.779 5.075s1.837-1.401 4.33-3.001a113.076 113.076 0 0 1 5.205-3.11s-.622 3.457-1.415 6.18a120.532 120.532 0 0 1-1.54 4.9l5.507.068c4.03.049 5.977.47 5.977.47s-1.41 1.813-4.634 4.096Z" fill="#1C418E"/><path fill-rule="evenodd" clip-rule="evenodd" d="M66.55 0C50.854.016 38.11 12.717 37.877 28.472h57.345C94.99 12.717 82.246.016 66.55 0Z" fill="#1C418E"/><path fill-rule="evenodd" clip-rule="evenodd" d="M86.552 25.542c-4.583-1.21-5.666-1.729-5.666-1.729s2.322-3.026 4.455-5.909a72.737 72.737 0 0 0 3.862-5.85s-2.993.613-7.032 1.902l-6.686 2.133s.028-4.006.028-7.58-.316-6.773-.316-6.773-2.033 2.2-4.266 5.39l-4.381 6.253-4.381-6.254c-2.234-3.189-4.265-5.389-4.265-5.389s-.318 3.2-.318 6.773c0 3.574.029 7.58.029 7.58l-6.686-2.133c-4.04-1.289-7.032-1.902-7.032-1.902s1.729 2.968 3.86 5.85a483.113 483.113 0 0 0 4.457 5.91s-1.084.518-5.666 1.728c-4.583 1.21-8.128 2.93-8.128 2.93h56.259s-3.545-1.72-8.127-2.93Z" fill="#AAC3EA"/><path fill-rule="evenodd" clip-rule="evenodd" d="m82.737 20.884-5.506-.067s.747-2.177 1.539-4.9c.793-2.724 1.415-6.18 1.415-6.18s-2.712 1.51-5.205 3.11c-2.493 1.6-4.33 3-4.33 3s-.887-2.67-1.78-5.075c-.893-2.407-2.32-5.467-2.32-5.467s-1.426 3.06-2.32 5.467c-.893 2.406-1.78 5.076-1.78 5.076s-1.837-1.401-4.33-3.001a112.995 112.995 0 0 0-5.205-3.11s.623 3.456 1.415 6.18c.793 2.723 1.54 4.9 1.54 4.9l-5.507.067c-4.03.049-5.976.47-5.976.47s1.41 1.813 4.633 4.096a643.843 643.843 0 0 1 4.237 3.022h26.587c.662-.477 2.044-1.47 4.236-3.022 3.223-2.283 4.634-4.096 4.634-4.096s-1.947-.421-5.977-.47Z" fill="#fff"/><path fill-rule="evenodd" clip-rule="evenodd" d="M0 51.813h3.114v-6.517H9.6V42.76H3.114v-4.208h7.004l.816-2.421H0v15.682ZM19.97 46.185l2.495-6.03 2.278 6.03H19.97ZM24.05 36.13h-3.173L14.781 51.81h3.272l1.163-3.238h6.28l1.256 3.238h3.398l-6.099-15.68ZM42.33 43.447h-1.728l-.03-4.831h1.537c2.907 0 3.455.838 3.455 2.292 0 1.916-1.71 2.539-3.235 2.539Zm3.14 1.764c1.572-.67 3.297-2.158 3.297-4.397 0-2.17-.91-4.683-7.31-4.683h-4.17v15.678h3.331l-.016-6.158 1.28-.002 4.457 6.16h3.81L45.47 45.21ZM107.465 43.447h-1.728l-.031-4.831h1.539c2.907 0 3.455.838 3.455 2.292 0 1.916-1.71 2.539-3.235 2.539Zm6.438-2.633c0-2.17-.911-4.683-7.311-4.683h-4.169v15.678h3.33l-.016-6.158 1.281-.002 4.457 6.16h3.81l-4.679-6.598c1.572-.67 3.297-2.158 3.297-4.397ZM67.02 51.809l4.329-9.886.61 9.886h3.23L74.07 36.13h-3.344l-4.388 10.28-4.566-10.28h-3.467l-.88 15.678h2.946l.743-9.934 4.292 9.934h1.615ZM93.983 49.072h-7.125v-4.18h6.413v-2.636h-6.413v-3.54h6.483l.897-2.585H83.64v15.678h10.342v-2.737ZM125.518 40.05c0-1.434.649-1.67 2.737-1.67 2.203 0 3.892 1.383 3.892 1.383l.086-3.055s-1.616-.938-4.101-.938c-3.923 0-5.785 2.316-5.785 4.597 0 5.938 7.782 3.863 7.782 7.12 0 1.505-.895 1.843-2.928 1.843-2.738 0-4.133-1.497-4.133-1.497l-1.4 2.477s2.174 1.71 5.449 1.71c4.049 0 6.181-1.92 6.181-4.649 0-6.024-7.78-4.064-7.78-7.32ZM130.001 33.023c-.293 0-.525-.167-.525-.167l-.067.213s.233.155.582.155c.363 0 .661-.165.661-.486 0-.587-.956-.54-.956-.968 0-.168.172-.255.395-.255.236 0 .459.095.459.095l.063-.213s-.247-.083-.512-.083c-.42 0-.656.212-.656.48 0 .564.957.54.957.96 0 .178-.184.269-.401.269ZM131.359 31.604l.646 1.587h.187l.646-1.568.063 1.568h.242l-.072-1.845h-.357l-.616 1.524-.606-1.524h-.357l-.072 1.845h.241l.055-1.587Z" fill="#1C418E"/><path fill-rule="evenodd" clip-rule="evenodd" d="M95.525 64.994c0 1.993.724 2.737 2.77 2.737 1.495 0 2.178-.626 2.178-.626l1.017 1.14s-1.233.997-3.148.997c-2.623 0-4.552-1.85-4.552-4.473 0-2.544 1.823-4.591 4.695-4.591 1.746 0 2.9.748 2.9.748l-.616 1.496s-.919-.76-2.44-.76c-2.308 0-2.803 1.548-2.803 3.332ZM41.441 62.57c0-.798.372-.93 1.566-.93 1.259 0 2.226.77 2.226.77l.049-1.7s-.925-.52-2.346-.52c-2.243 0-3.308 1.288-3.308 2.556 0 1.898 1.469 2.324 2.72 2.687.925.27 1.731.503 1.731 1.274 0 .837-.512 1.026-1.675 1.026-1.567 0-2.364-.834-2.364-.834l-.801 1.38s1.244.95 3.116.95c2.317 0 3.536-1.069 3.536-2.586 0-1.932-1.478-2.388-2.73-2.774-.921-.284-1.72-.531-1.72-1.299Zm69.885-2.307-.505 1.457h-3.655v1.996h3.615V65.2h-3.615v2.358h4.016v1.543h-5.83v-8.839h5.974Zm-47.462 4.124h-.936l-.017-2.723h.834c1.576 0 1.873.473 1.873 1.292 0 1.08-.927 1.431-1.754 1.431Zm3.49-1.484c0-1.223-.493-2.64-3.964-2.64h-2.259v8.837h1.805l-.008-3.47.694-.002 2.416 3.472h2.065l-2.536-3.719c.852-.377 1.787-1.216 1.787-2.478Zm6.264 3.016 1.395-3.37 1.273 3.37h-2.668Zm.509-5.618-3.408 8.761h1.829l.649-1.809h3.51l.702 1.81h1.898l-3.408-8.762h-1.772Zm-50.226 8.8h-1.87v-8.819h1.87v8.82Zm10.11-2.969-4.237-5.815H28.29v8.784h1.6v-5.707l4.18 5.707h1.584v-8.784H34.01v5.815Zm50.133-5.815 4.236 5.815v-5.815h1.645v8.784h-1.586l-4.18-5.707v5.707h-1.6v-8.784h1.485ZM55.06 64.992c0 1.731-.355 2.573-1.759 2.573-1.403 0-1.776-.816-1.776-2.652v-4.63h-1.778v5.86c0 2.387 1.586 2.993 3.542 2.993 1.954 0 3.553-.894 3.553-3.177v-5.676H55.06v4.709Z" fill="#E11632"/><path fill-rule="evenodd" clip-rule="evenodd" d="M66.55 16.031h8.935s.028 5.447-2.451 9.828c-2.478 4.38-6.484 6.052-6.484 6.052v-15.88Z" fill="#A20F31"/><path fill-rule="evenodd" clip-rule="evenodd" d="M66.55 16.031h-8.935s-.029 5.447 2.45 9.828c2.48 4.38 6.485 6.052 6.485 6.052v-15.88Z" fill="#E31630"/></svg>