<svg width="48" height="48" viewBox="0 0 48 48" xmlns="http://www.w3.org/2000/svg"><g fill="none" fill-rule="evenodd"><path fill-opacity=".01" fill="#FFF" d="M0 0h48v48H0z"/><path d="M24.007 15.508c12.231 0 22.147 3.725 22.147 8.314 0 4.59-9.916 8.301-22.147 8.301-12.245 0-22.16-3.711-22.16-8.3 0-4.59 9.915-8.315 22.16-8.315zm0 .836c-11.745 0-21.29 3.356-21.29 7.478 0 4.137 9.545 7.451 21.29 7.451 11.774 0 21.304-3.314 21.304-7.45 0-4.123-9.53-7.48-21.304-7.48zm0 .623c11.388 0 20.632 3.074 20.632 6.855 0 3.797-9.244 6.87-20.632 6.87-11.402 0-20.618-3.073-20.618-6.87 0-3.781 9.216-6.855 20.618-6.855zm-4.872 1.345c-3.558 0-5.001 1.417-5.015 2.82-.015.75.542 1.515 1.371 1.515 1.486 0 2.344-1.53 2.415-2.082 0 0 .029-.1-.057-.17-.043-.029-.157-.014-.2.085-.2.467-1 1.005-1.572 1.104-.528.1-.886-.184-.914-.623-.058-1.076 1.171-2.252 3.93-2.252.785 0 1.785.212 2.885.467l.032.008c-.432.086-2 1.28-3.232 3.151-.329.043-1.7.156-2.158.666a.5.5 0 0 0-.085.184c.028.113.114.17.242.07.286-.325 1.444-.452 1.715-.467-1.686 2.352-3.243 3.896-4.63 3.896-.142 0-.285.014-.443-.029-.557-.127-.885-.708-.885-1.232 0-.694.671-1.445 1.057-1.586.129-.057.186-.128.186-.184 0-.086-.057-.142-.215-.142-1.328.326-2.043 1.402-2.029 2.28.03 1.445 1.13 2.253 2.372 2.253 1.743 0 2.63-.751 5.473-5.312 1.129-.114 1.686-.184 2.257-.284 0 0 .172.411.6.411.072.014.057-.056.1-.212-.185-.014-.4-.142-.4-.298.172-.085.315-.184.443-.283.186-.17.372-.524.372-.765a.499.499 0 0 0-.429-.481c-.457-.071-.814.297-.857.906 0 .156.057.34.057.34s-1 .17-1.857.212c1.057-1.77 2.029-2.393 2.314-2.648.057-.043.2-.198.214-.227a.156.156 0 0 0-.037-.182c1.077.29 3.153 1.188 5.153 1.188 1.357 0 2.957-.864 2.957-1.318 0-.113 0-.226-.285-.226-.315 0-.143.028-.93.156-.742.113-1.657.085-2.37.085-1.944-.029-4.33-.425-5.288-.595a13.411 13.411 0 0 0-2.257-.199zm17.36 2.918h-1.129l-1.843 3.088c-.143-.283-.357-.949-1.2-.963-1.4-.014-1.943.935-2.915 1.842-.285.255-.629.594-1.415.594-.457 0-.814-.368-.728-.835.057-.368.186-.553.457-.652.129.368.372.567.786.567.472-.014.743-.44.757-.808 0-.311-.2-.708-.771-.736-.53-.029-.93.212-1.5.864 0 0 .142-.963-.93-.935-.114 0-.228 0-.342.056-.586.185-1.343 1.12-1.943 1.842.028-.141.028-.283.028-.425 0-.41-.157-.949-.443-1.232-.057-.057-.114-.057-.171-.057-.186 0-.343.156-.343.397.143.141.329.495.329.835 0 .34-.1.964-.243 1.204-.543.921-1.23 1.516-2.058 1.389-.443-.1-.743-.525-.657-1.162.043-.368.271-.878.486-1.19.357-.482.943-.977 1.8-1.105 0 0 .043-.17-.072-.255-.042-.07-.1-.156-.3-.156-1.214.043-1.957.907-2.386 1.757-.157.298-.386.722-.514.992 0 0-.114.311-.643.708-.272.212-.357.283-.4.269.014.099.086.24.214.354.043.028.186-.057.243-.085.672-.382.743-.567.743-.567.143.794.829 1.204 1.586 1.204 1.043 0 2-.934 2.557-1.756.586-.864 1.387-1.714 1.387-1.714.314-.297.643-.496.843-.496.185.014.314.17.271.34-.071.298-.172.581-.372.935l-1.557 2.62h1.215c.7-1.303.728-1.345 1.414-2.591.186.694.557.963 1.158.977.514.014.87-.014 1.257-.213-.1.397-.043.794.085 1.063.144.325.43.736 1.13.75.843 0 1.671-.368 1.914-.58.072.41.272.623.8.623 1.072-.028 2.015-1.119 2.586-1.827.1-.128.229-.34.229-.397 0-.085-.114-.141-.172-.141-.057 0-.157.127-.214.198-.271.283-1.4 1.445-2.015 1.473.129 0-.214.07-.242-.198-.015-.17.128-.383.185-.496l3.058-5.369zm-4.232 2.786l.117.005c.614.07.672.665.371 1.218l.158.043s-.486.807-.986 1.303c-.886.892-1.458.595-1.586.495-.129-.099-.229-.453-.172-.807.043-.354.315-.949.572-1.26.514-.624 1.143-1.049 1.643-.992zm-9.999-2.885c.1-.014.143.085.157.17.029.17-.114.425-.2.51-.214.241-.357.227-.357.227a.908.908 0 0 1 0-.553c.057-.212.185-.311.4-.354z" fill="#000"/></g></svg>