<svg width="48" height="48" viewBox="0 0 48 48" xmlns="http://www.w3.org/2000/svg"><g fill="none" fill-rule="evenodd"><path fill-opacity=".01" fill="#FFF" d="M0 0h48v48H0z"/><path d="M15.758 19.2v2.237H4.834c-.302 0-.577.164-.577.659v3.723c0 .455.177.746.738.746h7.694c.409 0 .72-.156.72-.722v-.87H8.904v-2.136h6.854v3.43c0 1.638-1.112 2.533-2.867 2.533H4.518c-1.697 0-2.672-.981-2.672-2.618V21.84c0-1.576.918-2.64 2.65-2.64h11.262zm5.187 0l3.67 6.895L28.28 19.2h3.716v9.6h-2.418v-7.281L25.73 28.8H23.5l-3.85-7.281V28.8h-2.413v-9.6h3.708zm25.209 0v2.41h-9.77c-.305 0-.58.173-.58.663v3.37c0 .452.179.742.738.742h9.612V28.8H36.062c-1.697 0-2.667-.981-2.667-2.618V21.84c0-1.576.914-2.64 2.645-2.64h10.114z" fill="#000"/></g></svg>