<svg width="48" height="48" viewBox="0 0 48 48" xmlns="http://www.w3.org/2000/svg"><g fill="none" fill-rule="evenodd"><path fill-opacity=".01" fill="#FFF" d="M0 0h48v48H0z"/><path d="M38.717 18.833c-.102-1.709-.355-3.573-1.619-4.837-1.153-1.152-2.818-1.476-4.367-1.683-2.915-.39-5.788-.496-8.731-.498-2.943.002-5.817.109-8.731.498-1.549.207-3.214.53-4.367 1.683-1.265 1.264-1.517 3.128-1.619 4.837-.118 1.98-.016 3.955.106 5.932.122 1.945.341 3.91.816 5.803.22.879.517 1.761 1.027 2.517.49.725 1.195 1.238 1.984 1.6 1.678.767 3.615.833 5.426.945 1.778.11 3.567.176 5.358.185 1.79-.009 3.58-.075 5.357-.185 1.812-.112 3.748-.178 5.426-.945.79-.362 1.495-.875 1.985-1.6.51-.756.807-1.638 1.027-2.517.475-1.894.693-3.858.816-5.803.122-1.977.224-3.952.106-5.932M13.05 32.596c-1.135-1.223-1.285-3.29-1.503-4.867-.315-2.29-.422-4.634-.395-6.943.02-1.809-.113-4.104 1.032-5.632.605-.808 1.612-1.076 2.53-1.342.485.02.292.782.32 1.09.025 1.832.129 3.666.208 5.496.268 4.362.582 8.71 1.149 13.043.146 1.387-2.942-.413-3.341-.845m14.956 1.7c-.18.032-.789.03-1.46.047-.85.02-1.698.023-2.546.023-.848 0-1.697-.002-2.546-.023-.672-.016-1.28-.015-1.46-.047-.181-.031-.368-.042-.313-.244.054-.203.87-2.834.87-2.834.535-1.75.572-1.864 1.946-2.134.456-.09.977-.148 1.503-.15a8.17 8.17 0 0 1 1.503.15c1.373.27 1.411.384 1.946 2.134 0 0 .816 2.631.87 2.834.055.202-.132.213-.313.244M30.4 13.774c-.628 2.288-1.353 5.321-2 7.62-.516 1.839-1.109 4.207-3.35 4.442-.336.035-.69.064-1.05.07-.36-.006-.715-.035-1.05-.07-2.241-.235-2.834-2.603-3.351-4.442-.646-2.299-1.371-5.332-2-7.62-.107-.395.055-.305.866-.414 1.459-.197 3.634-.227 5.535-.209 1.9-.018 4.076.012 5.534.209.812.109.975.02.866.414m6.053 13.955c-.218 1.578-.368 3.644-1.503 4.867-.399.432-3.488 2.232-3.34.845.566-4.333.879-8.68 1.148-13.043.079-1.83.184-3.664.209-5.495.026-.31-.166-1.071.32-1.091.916.266 1.924.534 2.529 1.342 1.144 1.528 1.011 3.824 1.032 5.632.027 2.309-.08 4.653-.395 6.943" fill="#000"/></g></svg>