<svg width="48" height="48" viewBox="0 0 48 48" xmlns="http://www.w3.org/2000/svg"><g fill="none" fill-rule="evenodd"><path fill-opacity=".01" fill="#FFF" d="M0 0h48v48H0z"/><path d="M40.912 24.02c0-1.742-1.214-3.318-3.349-4.604-.293-.208-.544-.083-.67.083-.083.124-3.181 7.301-6.823 11.2-.419.457.042.54.628.416 6.028-1.203 10.214-3.941 10.214-7.094m-16.075 1.244c-1.59.29-3.14.83-4.354 1.286-3.935 1.37-5.777 2.821-6.153 3.153-.503.415-.126.623.334.747 2.68.788 6.74 1.37 9.336 1.286 1.884-.083 2.93-2.116 3.39-2.987 1.927-4.107-1.59-3.65-2.553-3.485m-13.773 3.278c.084-.166 3.182-7.344 6.824-11.243.46-.415-.042-.498-.628-.374-6.028 1.162-10.215 3.9-10.215 7.053 0 1.743 1.256 3.36 3.35 4.647.292.166.585.041.669-.083m12.057-5.809c1.59-.29 3.14-.83 4.354-1.286 3.935-1.368 5.776-2.78 6.153-3.11.503-.457.126-.623-.334-.79-2.68-.788-6.74-1.368-9.336-1.244-1.884.041-2.93 2.074-3.349 2.946-1.968 4.107 1.549 3.692 2.512 3.484m19.34 1.287c0 5.061-8.289 9.21-18.461 9.21-10.215 0-18.462-4.149-18.462-9.21 0-5.103 8.247-9.252 18.462-9.252 10.172 0 18.462 4.149 18.462 9.252" fill="#000"/></g></svg>