<svg width="134" height="71" viewBox="0 0 134 71" xmlns="http://www.w3.org/2000/svg"><g fill="none" fill-rule="evenodd"><path d="M66.55 1c-15.696.016-28.44 12.717-28.673 28.472H66.55V1z" fill="#FFF"/><path d="M38.42 29.472s3.545-1.719 8.128-2.93c4.582-1.21 5.666-1.729 5.666-1.729s-2.323-3.026-4.456-5.908c-2.132-2.882-3.861-5.85-3.861-5.85s2.993.613 7.032 1.901l6.686 2.133s-.029-4.006-.029-7.58.317-6.773.317-6.773 2.032 2.2 4.266 5.39l4.381 6.254v15.092H38.42z" fill="#FFF"/><path d="M49.02 26.45a633.452 633.452 0 0 1 4.236 3.022H66.55V6.304s-1.426 3.061-2.32 5.468c-.894 2.406-1.78 5.075-1.78 5.075s-1.837-1.4-4.33-3a113.07 113.07 0 0 0-5.205-3.11s.623 3.456 1.415 6.18c.793 2.723 1.54 4.9 1.54 4.9l-5.507.067c-4.03.05-5.976.47-5.976.47s1.41 1.813 4.633 4.096M66.55 1c15.696.016 28.44 12.717 28.672 28.472H66.55V1z" fill="#FFF"/><path d="M94.679 29.472s-3.545-1.719-8.127-2.93c-4.583-1.21-5.666-1.729-5.666-1.729s2.322-3.026 4.455-5.908a72.651 72.651 0 0 0 3.862-5.85s-2.993.613-7.032 1.901l-6.686 2.133s.028-4.006.028-7.58-.316-6.773-.316-6.773-2.033 2.2-4.266 5.39L66.55 14.38v15.092h28.129z" fill="#FFF"/><path d="M84.08 26.45a651.629 651.629 0 0 0-4.236 3.022H66.55V6.304s1.426 3.061 2.32 5.468a179.604 179.604 0 0 1 1.78 5.075s1.836-1.4 4.33-3a113.07 113.07 0 0 1 5.204-3.11s-.622 3.456-1.415 6.18c-.792 2.723-1.539 4.9-1.539 4.9l5.506.067c4.031.05 5.977.47 5.977.47s-1.41 1.813-4.634 4.096" fill="#FFF"/><path d="M66.55 1c-15.696.016-28.44 12.717-28.673 28.472h57.345C94.99 13.717 82.246 1.016 66.55 1" stroke="#000" fill="#FFF"/><path d="M86.552 26.543c-4.583-1.21-5.666-1.73-5.666-1.73s2.322-3.025 4.455-5.909c2.133-2.881 3.862-5.85 3.862-5.85s-2.993.614-7.032 1.902l-6.686 2.134s.028-4.006.028-7.58-.316-6.774-.316-6.774-2.033 2.2-4.266 5.39l-4.381 6.253-4.381-6.253c-2.234-3.19-4.265-5.39-4.265-5.39s-.318 3.2-.318 6.773c0 3.575.029 7.58.029 7.58l-6.686-2.132c-4.04-1.29-7.032-1.902-7.032-1.902s1.729 2.968 3.86 5.85a483.113 483.113 0 0 0 4.457 5.909s-1.084.518-5.666 1.729c-4.583 1.21-8.128 2.93-8.128 2.93h56.259s-3.545-1.72-8.127-2.93" fill="#181818" opacity=".4"/><path d="M82.736 21.884l-5.506-.067s.747-2.177 1.54-4.9c.792-2.724 1.414-6.18 1.414-6.18s-2.712 1.51-5.205 3.11c-2.493 1.6-4.33 3-4.33 3s-.887-2.67-1.779-5.075c-.894-2.407-2.32-5.467-2.32-5.467s-1.427 3.06-2.32 5.467c-.894 2.406-1.78 5.076-1.78 5.076s-1.838-1.401-4.33-3.001a112.99 112.99 0 0 0-5.206-3.11s.623 3.456 1.415 6.18c.793 2.723 1.54 4.9 1.54 4.9l-5.507.067c-4.029.049-5.976.47-5.976.47s1.411 1.813 4.633 4.096a643.843 643.843 0 0 1 4.237 3.022h26.587c.662-.477 2.044-1.47 4.236-3.022 3.223-2.283 4.634-4.096 4.634-4.096s-1.947-.421-5.977-.47" fill="#040404"/><path fill="#FFF" d="M0 52.813h3.114v-6.518H9.6V43.76H3.114V39.55h7.004l.816-2.42H0zM19.969 47.184l2.496-6.03 2.278 6.03h-4.774zm4.082-10.053h-3.173L14.78 52.808h3.272l1.163-3.237h6.28l1.256 3.237h3.398l-6.1-15.678zM42.33 44.447h-1.728l-.03-4.831h1.537c2.907 0 3.455.838 3.455 2.292 0 1.916-1.71 2.539-3.235 2.539zm3.14 1.764c1.572-.67 3.297-2.158 3.297-4.397 0-2.17-.91-4.683-7.31-4.683h-4.17v15.678h3.331l-.016-6.158 1.28-.002 4.457 6.16h3.81L45.47 46.21zM107.465 44.447h-1.728l-.031-4.831h1.539c2.907 0 3.455.838 3.455 2.292 0 1.916-1.71 2.539-3.235 2.539m6.438-2.633c0-2.17-.911-4.683-7.311-4.683h-4.17v15.678h3.33l-.015-6.158 1.28-.002 4.458 6.16h3.81l-4.68-6.598c1.573-.67 3.298-2.158 3.298-4.397M67.02 52.81l4.329-9.887.61 9.886h3.23l-1.12-15.678h-3.344l-4.388 10.281-4.566-10.28h-3.467l-.88 15.677h2.946l.743-9.934 4.292 9.934zM93.983 50.072h-7.126v-4.18h6.413v-2.636h-6.412v-3.54h6.483l.897-2.585H83.64v15.678h10.341zM125.518 41.05c0-1.435.649-1.67 2.737-1.67 2.203 0 3.892 1.382 3.892 1.382l.086-3.055s-1.616-.937-4.101-.937c-3.923 0-5.785 2.316-5.785 4.597 0 5.937 7.782 3.862 7.782 7.12 0 1.504-.895 1.843-2.928 1.843-2.738 0-4.133-1.498-4.133-1.498l-1.4 2.478s2.174 1.71 5.449 1.71c4.049 0 6.18-1.92 6.18-4.649 0-6.024-7.78-4.064-7.78-7.32M130.001 34.022c-.293 0-.525-.166-.525-.166l-.067.213s.233.155.582.155c.363 0 .661-.166.661-.487 0-.587-.956-.539-.956-.968 0-.168.172-.254.395-.254.236 0 .459.094.459.094l.063-.213s-.247-.083-.512-.083c-.42 0-.656.213-.656.481 0 .564.957.54.957.96 0 .177-.184.268-.401.268M131.36 32.604l.645 1.587h.187l.646-1.568.063 1.568h.242l-.072-1.845h-.357l-.616 1.524-.606-1.524h-.357l-.072 1.845h.241zM73.618 66.92l1.395-3.37 1.273 3.37h-2.668zm.51-5.618l-3.409 8.761h1.83l.648-1.809h3.51l.702 1.81h1.898L75.9 61.301h-1.772zM63.864 65.389h-.936l-.017-2.723h.834c1.576 0 1.873.473 1.873 1.292 0 1.08-.927 1.43-1.754 1.43m3.49-1.483c0-1.223-.493-2.64-3.964-2.64h-2.259v8.837h1.805l-.008-3.471.694-.001 2.416 3.472h2.065l-2.536-3.72c.852-.376 1.787-1.215 1.787-2.477M110.821 62.722l.505-1.458h-5.974v8.838h5.83v-1.543h-4.016v-2.357h3.615v-1.485h-3.615v-1.995zM41.441 63.571c0-.798.372-.93 1.566-.93 1.26 0 2.226.77 2.226.77l.05-1.7s-.926-.52-2.347-.52c-2.243 0-3.308 1.288-3.308 2.556 0 3.303 4.451 2.15 4.451 3.961 0 .837-.512 1.026-1.675 1.026-1.567 0-2.364-.834-2.364-.834l-.8 1.38s1.243.95 3.115.95c2.317 0 3.536-1.069 3.536-2.586 0-3.352-4.45-2.26-4.45-4.073M22.03 70.102h1.872v-8.819H22.03zM34.01 67.133l-4.235-5.815H28.29v8.784h1.6v-5.707l4.179 5.707h1.585v-8.784H34.01zM88.38 67.133l-4.235-5.815H82.66v8.784h1.6v-5.707l4.179 5.707h1.586v-8.784H88.38zM55.06 65.992c0 1.731-.355 2.573-1.76 2.573-1.402 0-1.775-.816-1.775-2.652v-4.63h-1.778v5.86c0 2.387 1.586 2.993 3.542 2.993 1.954 0 3.553-.894 3.553-3.177v-5.676H55.06v4.71zM98.296 68.73c-2.046 0-2.77-.743-2.77-2.736 0-1.784.495-3.331 2.803-3.331 1.522 0 2.44.759 2.44.759l.616-1.496s-1.154-.748-2.9-.748c-2.871 0-4.694 2.047-4.694 4.59 0 2.624 1.928 4.474 4.55 4.474 1.916 0 3.149-.997 3.149-.997l-1.017-1.14s-.682.626-2.177.626"/><path d="M66.55 17.032h8.935s.028 5.447-2.451 9.828c-2.478 4.38-6.484 6.052-6.484 6.052v-15.88z" fill="#FFF" opacity=".8"/><path d="M66.55 17.032h-8.935s-.03 5.447 2.45 9.828c2.479 4.38 6.485 6.052 6.485 6.052v-15.88z" fill="#FFF" opacity=".6"/></g></svg>