<svg width="96" height="66" viewBox="0 0 96 66" fill="none" xmlns="http://www.w3.org/2000/svg">
<path fill-rule="evenodd" clip-rule="evenodd" d="M12.6845 57.5222L10.9455 60.3638L9.16138 57.4609L8.3125 57.6366L10.5158 61.0993V63.4579H11.3627V61.0993L13.6255 57.5222H12.6845Z" fill="white"/>
<path fill-rule="evenodd" clip-rule="evenodd" d="M15.3548 62.9051C14.5961 62.9051 14.1913 62.2546 14.1913 61.4148C14.1913 60.5548 14.5779 59.9116 15.3548 59.9116C16.1289 59.9116 16.5452 60.5703 16.5452 61.4148C16.5452 62.2692 16.1462 62.9051 15.3548 62.9051ZM15.3548 59.2676C14.2105 59.2676 13.3789 60.0571 13.3789 61.4148C13.3789 62.7587 14.2105 63.5391 15.3548 63.5391C16.5068 63.5391 17.3576 62.7587 17.3576 61.4148C17.3576 60.0571 16.5068 59.2676 15.3548 59.2676Z" fill="white"/>
<path fill-rule="evenodd" clip-rule="evenodd" d="M20.9452 62.1943C20.5606 62.5859 20.1261 62.8558 19.704 62.8558C19.234 62.8558 19.0422 62.5713 19.0422 62.1523V59.3564H18.2432V62.3398C18.2432 63.0808 18.6623 63.5392 19.4863 63.5392C20.0858 63.5392 20.6018 63.2291 21.0056 62.864L21.1073 63.4587H21.749V59.3564H20.9452V62.1943Z" fill="white"/>
<path fill-rule="evenodd" clip-rule="evenodd" d="M22.6455 59.4254L23.103 59.5297L23.8387 57.5225H22.9093L22.6455 59.4254Z" fill="white"/>
<path fill-rule="evenodd" clip-rule="evenodd" d="M25.2144 60.1934L25.0782 59.3563H24.4375V63.4586H25.2403V61.0333C25.5271 60.4889 26.1343 60.0342 26.846 60.0013L26.7175 59.2676C26.0135 59.3051 25.5156 59.7232 25.2144 60.1934Z" fill="white"/>
<path fill-rule="evenodd" clip-rule="evenodd" d="M28.0844 60.9098C28.2129 60.2071 28.6283 59.8641 29.1299 59.8641C29.7515 59.8641 30.0584 60.2492 30.1553 60.9098H28.0844ZM29.1405 59.2676C28.0547 59.2676 27.2441 60.0809 27.2441 61.3965C27.2441 62.8968 28.1199 63.5391 29.2383 63.5391C29.9462 63.5391 30.492 63.3378 30.9572 62.9929L30.8392 62.3086C30.3721 62.6526 29.9241 62.8877 29.3054 62.8877C28.5477 62.8877 28.071 62.4403 28.0441 61.4934H30.9658V61.3269C30.9658 60.1934 30.3874 59.2676 29.1405 59.2676Z" fill="white"/>
<path fill-rule="evenodd" clip-rule="evenodd" d="M34.263 57.5557C33.9801 57.5557 33.7432 57.7798 33.7432 58.046C33.7432 58.3123 33.9801 58.5346 34.263 58.5346C34.5345 58.5346 34.7637 58.3123 34.7637 58.046C34.7637 57.7798 34.5345 57.5557 34.263 57.5557Z" fill="white"/>
<path fill-rule="evenodd" clip-rule="evenodd" d="M33.8516 63.4578H34.6544V59.3564H33.8516V63.4578Z" fill="white"/>
<path fill-rule="evenodd" clip-rule="evenodd" d="M38.082 59.2676C37.4614 59.2676 36.9626 59.6015 36.5521 59.9446L36.4523 59.3563H35.8154V63.4586H36.6164V60.6225C37.0058 60.2254 37.4384 59.9556 37.8643 59.9556C38.3343 59.9556 38.5156 60.241 38.5156 60.66V63.4586H39.3261V60.4761C39.3261 59.7332 38.8896 59.2676 38.082 59.2676Z" fill="white"/>
<path fill-rule="evenodd" clip-rule="evenodd" d="M43.8273 61.5611C43.2997 61.5611 42.9602 61.1961 42.9602 60.7185C42.9602 60.2264 43.2911 59.8284 43.8273 59.8284C44.3654 59.8284 44.7193 60.198 44.7193 60.6865C44.7193 61.1796 44.3846 61.5611 43.8273 61.5611ZM43.3909 63.1411C43.5587 63.1759 43.6863 63.1997 43.9194 63.2445L44.4306 63.3323C45.0493 63.432 45.2478 63.6013 45.2478 63.8501C45.2478 64.1987 44.7759 64.4713 43.9405 64.4713C43.0993 64.4713 42.6513 64.2325 42.6513 63.9059C42.6513 63.6177 42.8844 63.3771 43.3909 63.1411ZM46.0286 59.295L44.9399 59.6152C44.6416 59.3911 44.2656 59.2676 43.8273 59.2676C42.9602 59.2676 42.1842 59.8101 42.1842 60.6938C42.1842 61.2583 42.5046 61.691 42.9822 61.917C42.6935 62.0808 42.5305 62.2793 42.5305 62.4778C42.5305 62.6279 42.6082 62.777 42.8029 62.9051C42.1976 63.2198 41.8936 63.5391 41.8936 63.9663C41.8936 64.6881 42.7827 65.0202 43.9031 65.0202C45.0234 65.0202 46.0046 64.6159 46.0046 63.755C46.0046 63.1219 45.4349 62.8493 44.5179 62.6873L44.2206 62.637C43.458 62.5071 43.3045 62.4778 43.3045 62.3351C43.3045 62.2546 43.3985 62.1576 43.5175 62.0808C43.6211 62.0972 43.7371 62.1046 43.8493 62.1046C44.7193 62.1046 45.4963 61.5739 45.4963 60.6938C45.4963 60.4697 45.4426 60.2492 45.3294 60.0571L46.1524 59.9784L46.0286 59.295Z" fill="white"/>
<path fill-rule="evenodd" clip-rule="evenodd" d="M48.4838 62.9051C47.7308 62.9051 47.3289 62.2546 47.3289 61.4148C47.3289 60.5548 47.7107 59.9116 48.4838 59.9116C49.2665 59.9116 49.677 60.5703 49.677 61.4148C49.677 62.2692 49.2857 62.9051 48.4838 62.9051ZM48.4838 59.2676C47.3452 59.2676 46.5107 60.0571 46.5107 61.4148C46.5107 62.7587 47.3452 63.5391 48.4838 63.5391C49.6406 63.5391 50.4904 62.7587 50.4904 61.4148C50.4904 60.0571 49.6406 59.2676 48.4838 59.2676Z" fill="white"/>
<path fill-rule="evenodd" clip-rule="evenodd" d="M53.1371 62.9051C52.3774 62.9051 51.9726 62.2546 51.9726 61.4148C51.9726 60.5548 52.3592 59.9116 53.1371 59.9116C53.9121 59.9116 54.3265 60.5703 54.3265 61.4148C54.3265 62.2692 53.9323 62.9051 53.1371 62.9051ZM53.1371 59.2676C51.9928 59.2676 51.1631 60.0571 51.1631 61.4148C51.1631 62.7587 51.9928 63.5391 53.1371 63.5391C54.2958 63.5391 55.1389 62.7587 55.1389 61.4148C55.1389 60.0571 54.2958 59.2676 53.1371 59.2676Z" fill="white"/>
<path fill-rule="evenodd" clip-rule="evenodd" d="M58.8367 62.1426C58.4933 62.5763 58.1145 62.8626 57.6176 62.8626C57.044 62.8626 56.6172 62.3951 56.6172 61.4931C56.6172 60.4757 57.1054 59.9442 57.7807 59.9442C58.2459 59.9442 58.5001 60.0147 58.8367 60.1793V62.1426ZM58.8367 59.4831C58.5634 59.3797 58.1778 59.3038 57.7548 59.3038C56.7092 59.3038 55.8066 60.0229 55.8066 61.5223C55.8066 62.8955 56.574 63.5378 57.4987 63.5378C58.1346 63.5378 58.573 63.2377 58.9029 62.8626L59.0036 63.4573H59.6377V57.249L58.8367 57.3652V59.4831Z" fill="white"/>
<path fill-rule="evenodd" clip-rule="evenodd" d="M64.9707 59.2672C64.3549 59.2672 63.8619 59.6011 63.506 59.8939V57.249L62.7051 57.3661V63.4582H63.506V60.6221C63.8945 60.2251 64.3319 59.9552 64.751 59.9552C65.2191 59.9552 65.4071 60.2406 65.4071 60.6596V63.4582H66.2109V60.4757C66.2109 59.7329 65.7802 59.2672 64.9707 59.2672Z" fill="white"/>
<path fill-rule="evenodd" clip-rule="evenodd" d="M69.7721 62.3351C69.4066 62.68 68.9587 62.906 68.4887 62.906C68.0878 62.906 67.8508 62.6882 67.8508 62.3589C67.8508 61.9353 68.1846 61.5236 69.7721 61.3791V62.3351ZM69.0249 59.2676C68.3515 59.2676 67.8681 59.4167 67.3549 59.6152L67.4595 60.2767C67.9314 60.0809 68.4273 59.9199 68.951 59.9199C69.445 59.9199 69.7721 60.1028 69.7721 60.6225V60.7899C67.9784 60.972 67.0557 61.3791 67.0557 62.4037C67.0557 63.0981 67.5391 63.5391 68.3141 63.5391C69.0249 63.5391 69.492 63.2454 69.8344 62.906L69.9236 63.4595H70.5721V60.585C70.5721 59.6738 70.0675 59.2676 69.0249 59.2676Z" fill="white"/>
<path fill-rule="evenodd" clip-rule="evenodd" d="M73.9599 59.2676C73.3403 59.2676 72.8377 59.6015 72.4262 59.9446L72.3302 59.3563H71.6924V63.4586H72.4895V60.6225C72.876 60.2254 73.3125 59.9556 73.7335 59.9556C74.2045 59.9556 74.3925 60.241 74.3925 60.66V63.4586H75.2001V60.4761C75.2001 59.7332 74.7685 59.2676 73.9599 59.2676Z" fill="white"/>
<path fill-rule="evenodd" clip-rule="evenodd" d="M79.1131 62.1426C78.7736 62.5763 78.3908 62.8626 77.8969 62.8626C77.3185 62.8626 76.8945 62.3951 76.8945 61.4931C76.8945 60.4757 77.3779 59.9442 78.0628 59.9442C78.5175 59.9442 78.7812 60.0147 79.1131 60.1793V62.1426ZM79.1131 59.4831C78.8426 59.3797 78.4541 59.3038 78.0331 59.3038C76.9856 59.3038 76.084 60.0229 76.084 61.5223C76.084 62.8955 76.8504 63.5378 77.7808 63.5378C78.4091 63.5378 78.8532 63.2377 79.1726 62.8626L79.2781 63.4573H79.916V57.249L79.1131 57.3652V59.4831Z" fill="white"/>
<path fill-rule="evenodd" clip-rule="evenodd" d="M82.5159 60.9811C81.8463 60.8137 81.6296 60.6609 81.6296 60.3901C81.6296 60.0946 81.8809 59.9126 82.3691 59.9126C82.8199 59.9126 83.2957 60.0571 83.6717 60.2666L83.806 59.5503C83.4021 59.371 82.9206 59.2676 82.3873 59.2676C81.4464 59.2676 80.8718 59.7488 80.8718 60.4066C80.8718 61.1357 81.2785 61.4349 82.2914 61.6673C83.0616 61.8502 83.3072 61.9856 83.3072 62.369C83.3072 62.7056 82.9801 62.906 82.4334 62.906C81.8463 62.906 81.3255 62.6974 80.915 62.4357L80.8027 63.1603C81.1701 63.3543 81.8032 63.5391 82.3691 63.5391C83.4731 63.5391 84.0601 63.0615 84.0601 62.3168C84.0601 61.531 83.5882 61.2382 82.5159 60.9811Z" fill="white"/>
<path fill-rule="evenodd" clip-rule="evenodd" d="M85.0254 63.4583H85.9165V62.4346H85.0254V63.4583Z" fill="white"/>
<path fill-rule="evenodd" clip-rule="evenodd" d="M93.6166 53.0995C92.8828 53.0995 92.2977 52.6201 92.2977 51.772C92.2977 50.9157 92.8828 50.4354 93.6166 50.4354C94.3514 50.4354 94.9422 50.9157 94.9422 51.772C94.9422 52.6201 94.3571 53.0995 93.6166 53.0995ZM93.6166 50.2598C92.7198 50.2598 92.0752 50.8764 92.0752 51.772C92.0752 52.6704 92.7073 53.2761 93.6166 53.2761C94.5135 53.2761 95.16 52.6658 95.16 51.772C95.16 50.87 94.5288 50.2598 93.6166 50.2598Z" fill="white"/>
<path fill-rule="evenodd" clip-rule="evenodd" d="M93.5971 51.634H93.3803V51.1427H93.6086C93.8081 51.1427 93.9165 51.2259 93.9165 51.3888C93.9165 51.5571 93.7937 51.634 93.5971 51.634ZM94.2215 51.3687C94.2215 51.0567 93.9769 50.8838 93.6086 50.8838H93.0791V52.5488H93.3803V51.8618H93.5501L94.0728 52.5745L94.373 52.5095L93.8676 51.8288C94.0862 51.7639 94.2215 51.6084 94.2215 51.3687Z" fill="white"/>
<path fill-rule="evenodd" clip-rule="evenodd" d="M13.9054 45.3441H9.21111C9.50462 44.8986 13.9054 38.0774 13.9054 38.0774V45.3441ZM0 53.275H4.04587C4.04587 53.275 6.98003 48.7318 7.08267 48.5763H13.9111L13.914 53.2769L17.7537 53.276V35.0254H11.8997L0 53.275Z" fill="white"/>
<path fill-rule="evenodd" clip-rule="evenodd" d="M20.4795 53.2769H24.2117V35.0254H20.4795V53.2769Z" fill="white"/>
<path fill-rule="evenodd" clip-rule="evenodd" d="M26.9268 53.2769H30.6532V35.0254H26.9268V53.2769Z" fill="white"/>
<path fill-rule="evenodd" clip-rule="evenodd" d="M42.8099 52.1299C43.5523 51.4099 43.9159 50.4365 43.8996 49.2289C43.8506 46.208 42.2507 45.4898 38.8695 44.6573C36.8389 44.1523 36.415 43.8678 36.4687 43.0618C36.5119 42.3308 37.1363 41.9109 38.178 41.9109C39.4681 41.9109 41.045 42.3436 42.4003 43.0682L42.6133 43.1853L43.1284 40.1397L43.0056 40.0857C41.6148 39.4801 39.9496 39.1562 38.178 39.1562C36.4744 39.1562 35.0251 39.6585 34.0889 40.567C33.3484 41.2925 32.9686 42.2302 32.9887 43.2731C33.053 46.0872 34.4582 46.8832 37.7905 47.6992C39.9918 48.2189 40.4388 48.5263 40.4225 49.5271C40.411 50.4273 39.847 50.7658 38.3506 50.7658C36.7823 50.7658 35.0174 50.2169 33.4847 49.2618L33.2621 49.12L32.7451 52.1766L32.8564 52.2351C34.0487 52.8609 36.0889 53.5177 38.2365 53.5177C40.3198 53.5177 41.8584 53.0466 42.8099 52.1299Z" fill="white"/>
<path fill-rule="evenodd" clip-rule="evenodd" d="M53.447 53.2558L52.9626 50.2002L52.7708 50.2496C52.5128 50.3173 52.1886 50.3521 51.7454 50.3521C50.6404 50.3521 50.1244 49.8745 50.1244 48.8453V42.3845H52.8629L52.9118 39.414H50.1244V35.0254H46.4545V39.414H44.5371V42.3845H46.4545V49.3841C46.4545 52.1552 47.972 53.512 51.1009 53.512C52.1099 53.512 52.7286 53.4013 53.2792 53.2878L53.447 53.2558Z" fill="white"/>
<path fill-rule="evenodd" clip-rule="evenodd" d="M62.6231 49.4585C61.7099 50.3084 60.674 50.7659 59.616 50.7659C58.6981 50.7659 58.1302 50.2289 58.1302 49.368C58.1302 47.8328 59.6822 46.8283 62.6231 46.4523V49.4585ZM60.9061 39.1279C58.5839 39.1279 56.8324 39.6659 55.4387 40.1883L55.3064 40.2367L55.786 43.1652L55.9941 43.0765C57.6669 42.3711 59.0817 42.0427 60.4601 42.0427C61.9305 42.0427 62.6231 42.6227 62.6231 43.8715V44.231C57.1106 44.7708 54.4277 46.5639 54.4277 49.7138C54.4277 52.0412 56.0085 53.5434 58.4602 53.5434C60.1579 53.5434 61.567 52.9524 62.8657 51.7484C62.9348 52.151 63.1257 53.2753 63.1257 53.2753H66.3505V43.7773C66.3505 40.6082 64.6211 39.1279 60.9061 39.1279Z" fill="white"/>
<path fill-rule="evenodd" clip-rule="evenodd" d="M69.4039 49.3841C69.4039 52.1553 70.931 53.512 74.0608 53.512C75.0679 53.512 75.7164 53.3967 76.2401 53.2878L76.4031 53.2558L75.9226 50.2002L75.7307 50.2496C75.4766 50.3173 75.1476 50.3521 74.7111 50.3521C73.6023 50.3521 73.0805 49.8745 73.0805 48.8453V42.3845H75.8238L75.8746 39.414H73.0805V35.0254H69.4039V39.414H67.4961V42.3845H69.4039V49.3841Z" fill="white"/>
<path fill-rule="evenodd" clip-rule="evenodd" d="M80.7314 44.8229C80.8992 42.834 81.8047 41.6923 83.2396 41.6923C85.1676 41.6923 85.6798 43.3518 85.7556 44.8229H80.7314ZM89.414 46.2208C89.414 41.5239 87.3661 39.1325 83.3231 39.127C81.5476 39.1224 80.0916 39.654 78.9933 40.7015C77.6591 41.9677 76.9521 43.9383 76.9521 46.3828C76.9521 50.8043 79.5727 53.5425 83.7739 53.5425C85.8256 53.5425 87.6865 52.9981 89.3075 51.9332L89.4005 51.8747L88.9478 48.9764L88.7176 49.1328C87.0486 50.2362 85.6837 50.7128 84.1394 50.7128C82.1366 50.7128 80.8925 49.4183 80.6786 47.1686H89.3756L89.414 46.2208Z" fill="white"/>
<path fill-rule="evenodd" clip-rule="evenodd" d="M47.2299 27.992C37.8461 27.992 30.211 21.5706 30.211 14.2508C30.211 11.336 31.4339 8.64635 33.4818 6.45434C33.5557 6.50466 33.6286 6.55589 33.6286 6.55589C33.6554 6.57236 34.8381 7.50827 35.0146 7.64824C34.9849 7.71868 34.4985 9.00772 34.4985 9.00772C34.0506 10.0799 33.6027 11.1604 33.5768 12.0121L33.5844 12.1494C33.5883 12.1695 33.9729 14.0797 33.9729 14.0797L34.0036 14.2224C34.2204 15.2251 34.4621 16.3678 34.5657 17.1902C34.5887 17.4217 34.6472 17.5617 34.7422 17.6175C35.3263 18.1966 36.2817 19.3749 37.4346 21.6227C37.4682 21.6813 37.4845 21.717 37.5027 21.7426C37.6121 22.0518 37.7521 22.2586 37.919 22.3601C38.13 22.4836 38.53 22.4919 38.7909 22.3601C39.3818 21.9914 39.799 21.4736 40.0551 20.8497C40.1453 20.954 40.3899 21.2586 40.4292 21.3025C39.4374 22.9411 41.1918 23.5504 41.8143 23.3161C41.4546 24.3097 42.784 25.1093 44.0387 24.5768C44.2008 25.2209 44.7341 25.4094 45.2463 25.5027C45.7537 25.6006 46.4462 25.6518 47.5733 25.5557C49.2701 25.4222 50.8115 24.929 51.4311 24.6226C52.7395 23.9877 53.4541 23.1753 53.8742 22.609C53.8819 22.5962 53.9557 22.5074 54.0075 22.4434C54.1447 22.6776 54.2895 22.8971 54.4545 23.0655C54.8746 23.4534 55.266 23.6281 55.5854 23.5714C55.8118 23.5321 55.9911 23.3976 56.111 23.1496C56.6904 21.8139 57.9613 20.1681 58.956 19.0657C58.956 19.062 59.05 18.8901 59.05 18.8901C59.2677 18.1069 60.0408 16.1674 60.4533 15.1199L60.7468 14.367C60.7468 14.3633 60.8044 14.1849 60.8044 14.1849C60.8245 13.8858 60.836 13.5839 60.836 13.2884C60.836 11.9408 60.6298 10.6517 60.2413 9.56213C60.0533 9.00955 59.8586 8.67654 59.6792 8.35085L59.4682 7.98582C59.7425 7.59518 60.5281 7.08468 61.1794 6.66476C63.1083 8.81743 64.2488 11.4303 64.2488 14.2508C64.2488 21.5706 56.6165 27.992 47.2299 27.992ZM41.9419 22.6529C40.9875 22.9017 40.6345 22.2613 40.8599 21.7417C41.0421 21.9411 41.7165 22.5193 41.9419 22.6529ZM44.3446 23.6665C42.9433 24.3463 42.1721 23.758 42.5107 23.0417C42.9672 23.3344 43.6732 23.5485 44.3446 23.6665ZM40.387 2.10052C40.4407 2.15267 40.4906 2.20116 40.4906 2.20207L41.2839 2.89462C41.2839 2.89919 41.7376 3.30448 41.7376 3.30448C42.0742 3.61004 42.1529 3.7674 42.1423 3.82778C42.1289 3.88724 42.0656 3.91561 42.0061 3.94763C41.9467 3.98056 41.8536 4.0016 41.8536 4.0016L41.8143 4.28887L42.0023 4.28155C43.0497 4.25776 44.0358 4.93293 44.6736 5.50746C45.7815 6.51473 46.616 8.14684 46.804 9.671L47.6692 13.9654L47.9944 14.6277L48.0577 14.7622L48.2006 15.0421C48.3234 15.323 48.5133 15.5709 48.5286 15.5865C48.5507 15.6057 48.9775 15.9296 48.9775 15.9296L49.6029 16.5389L49.789 16.7282L50.0873 17.0137C50.1123 17.0301 50.9909 17.139 50.9909 17.139C52.5256 17.3833 52.4604 18.1948 52.4604 18.1948C52.4604 18.1948 53.3725 16.8591 51.1952 16.3897C51.1952 16.3897 50.5074 16.2653 50.4931 16.2653V16.2617C50.4931 16.247 50.2475 15.9296 50.2475 15.9296C50.2178 15.9003 50.166 15.8426 50.166 15.8426C50.1516 15.8262 49.5003 15.216 49.5003 15.216L49.202 14.9452C49.202 14.9388 48.9286 14.248 48.9286 14.248L48.544 13.3579C48.4461 13.0834 48.3819 12.6461 48.2936 12.0423C48.2888 12.0194 48.2274 11.6059 48.2274 11.6059L47.9407 9.8064C47.9454 9.77621 48.0059 9.45234 48.0059 9.45234C48.1296 8.77809 48.3953 8.03156 48.7934 7.22923C49.272 6.26863 50.2609 5.63371 50.2744 5.63005C51.0101 5.19367 52.0949 4.95306 52.6752 4.84785C52.8958 4.82772 52.9659 4.70239 53.0052 4.57705L53.032 4.50569L52.9591 4.49288C52.6378 4.43616 52.2676 4.3337 52.2378 4.27698C52.2321 4.266 52.2263 4.24221 52.2263 4.22117C52.2263 4.16719 52.2676 4.08211 52.3453 3.96958C52.3491 3.96958 52.8181 3.53685 52.8181 3.53685L53.0934 3.2752C53.0934 3.2752 53.95 2.48659 54.2828 2.1792C56.6501 3.02453 58.7354 4.27149 60.3718 5.82218C60.2058 5.93104 59.9094 6.12682 59.9094 6.12682C59.3195 6.51015 58.7229 6.66568 58.3546 6.52479C58.299 6.50466 57.8078 6.24118 57.8078 6.24118C57.781 6.22197 57.6937 6.18263 57.6937 6.18263C57.6764 6.17989 57.5278 6.16067 57.5278 6.16067C57.5076 6.1625 57.3436 6.19452 57.3436 6.19452L57.2381 6.22014L57.405 6.40403C57.7513 6.79559 57.9287 7.13226 58.1791 7.58877C58.1877 7.59884 58.3287 7.855 58.3287 7.855C58.3287 7.85591 58.4716 8.17337 58.4716 8.17337C58.7728 8.87873 59.0423 9.63532 59.2131 10.3718C59.5449 11.7056 59.7138 12.8053 59.7214 13.7449C59.7214 13.7577 59.707 13.851 59.707 13.851C59.7051 13.8565 59.2466 15.0879 59.2466 15.0879C58.7738 16.3641 58.1791 17.9541 58.0457 18.6083L58.0179 18.686C56.7479 19.9476 55.8473 21.4361 55.4665 22.3254C55.4041 22.4434 55.3629 22.4589 55.3475 22.4617C55.289 22.4717 55.1394 22.3418 55.0598 22.2732C54.7423 21.9987 54.5514 21.4306 54.5744 20.8268C54.6061 20.0894 54.9389 19.4335 55.4933 19.0181C55.5854 18.9532 55.5509 18.8315 55.5298 18.762C55.3753 17.9221 55.6247 16.6358 56.1676 16.2717L56.3086 16.1747L56.1705 16.075C54.6157 14.9269 53.855 12.7998 53.7908 11.2125L53.7821 11.0049L53.5404 11.1028C53.5136 11.1247 53.4224 11.2592 53.4224 11.2592C53.3601 11.5675 53.3332 11.8822 53.3332 12.185C53.3332 13.0002 53.4992 13.7119 53.5644 13.9654C53.7821 14.8409 54.2368 15.6533 54.9015 16.3815C54.9015 16.3815 54.9159 16.398 54.9293 16.4154C54.6406 16.7621 54.5121 17.6047 54.5121 18.257C54.5121 18.4564 54.5217 18.6284 54.5476 18.7684C53.8205 19.3667 53.6191 20.126 53.5788 20.6667C53.5788 20.6667 53.6028 21.2403 53.6028 21.2476C53.596 21.233 53.2479 21.6749 53.2479 21.6749L53.1817 21.7691C52.4891 22.6776 52.0057 23.3107 50.8489 23.876C49.5914 24.5 47.1532 24.929 45.5705 24.7818C44.9883 24.7177 45.0516 24.2209 45.0516 24.1962C45.0516 24.1285 45.0784 24.0563 45.1302 23.9904C45.1302 23.9904 45.2463 23.8706 45.2818 23.8349C46.7781 23.9959 48.2063 23.823 48.8001 23.5238C48.8241 23.501 49.0092 23.242 49.0092 23.242L49.0811 23.1204L48.9353 23.1524C47.6615 23.457 45.1312 23.0554 43.7941 22.5147C42.3044 21.9063 41.8517 21.3336 40.6345 19.8022L40.2959 19.3768C40.2853 18.9504 40.1635 18.514 39.9458 18.1444C39.7424 17.7995 39.4729 17.5818 39.3933 17.5223C39.4854 17.2653 39.5381 16.9066 39.5381 16.5288C39.5381 16.0137 39.4403 15.4941 39.2513 15.2059C40.1559 14.5307 40.6153 13.8391 40.6019 13.0432C40.5942 12.6653 40.3765 12.0917 40.3765 12.0917L40.0292 11.938L40.0532 12.1548C40.1923 13.5015 38.8773 14.3752 38.0063 14.9552C38.0063 14.958 37.7521 15.1217 37.7521 15.1217L37.919 15.2224C38.602 15.6277 38.6106 16.9954 38.4571 17.762L38.4485 17.8069L38.4849 17.8709L38.5233 17.8901C38.5176 17.8892 38.8514 18.1426 38.8514 18.1426C39.5381 19.0227 39.4835 20.3858 38.7267 21.1882C38.5751 21.341 38.4926 21.3593 38.4495 21.3538C38.3372 21.3318 38.2471 21.0811 38.2221 20.997C38.2164 20.9869 38.0101 20.5771 38.0101 20.5771C37.4154 19.3969 36.9167 18.407 35.7608 17.0887C35.7608 17.0869 35.7301 16.9835 35.7301 16.9835C35.5057 15.259 35.2256 13.9818 34.9503 12.7495L34.8017 12.0798C34.8017 12.0771 34.7825 11.906 34.7825 11.906C34.864 10.5968 35.2908 9.56762 35.7887 8.37647L36.0908 7.63177L36.3392 7.06181C36.344 7.06181 36.3843 6.97856 36.3843 6.97856C36.6769 6.57968 37.0692 6.20184 37.5469 5.8542L37.7608 5.70141L37.4826 5.59163C37.4826 5.59163 36.9416 5.64744 36.4025 5.90177L36.3057 5.94568C35.9095 6.12317 35.4529 6.26039 35.1096 6.1314C35.1096 6.1314 34.534 5.80388 34.277 5.65842C35.9345 4.13975 38.0188 2.91658 40.387 2.10052ZM47.2299 0.971582C49.3401 0.971582 51.3535 1.28629 53.2191 1.83613C52.9141 2.13803 52.1448 2.89828 52.1448 2.89828C51.3621 3.6997 50.4768 4.60633 50.071 4.76734C49.0773 5.15433 48.0577 6.08017 47.6558 6.96941C47.6558 6.97307 47.4793 7.40855 47.3843 7.64824C47.0841 6.82029 46.7071 6.13414 46.1911 5.53765C45.629 4.89268 44.9413 4.41329 44.0866 4.08211C43.6464 3.6814 42.2507 2.46372 41.4038 1.78947C43.2243 1.26983 45.1811 0.971582 47.2299 0.971582ZM47.2289 0C36.3901 0 27.5703 6.38299 27.5703 14.2343C27.5703 22.0811 36.3901 28.9645 47.2289 28.9645C58.0697 28.9645 66.8847 22.0811 66.8847 14.2343C66.8847 6.38299 58.0697 0 47.2289 0Z" fill="white"/>
<path fill-rule="evenodd" clip-rule="evenodd" d="M45.9473 19.2935L46.049 19.417C46.0921 19.4517 46.7271 19.6932 46.7271 19.6932C47.1521 19.8588 47.7343 20.1123 48.0038 20.2705L48.7232 20.6731C48.7788 20.6969 49.5203 20.6438 50.0056 20.6804C50.6157 20.7261 51.0895 20.9457 51.336 21.2869C51.6698 21.7361 51.2641 22.2164 51.2641 22.2164C51.3533 22.1744 52.042 21.7572 51.9941 21.0902C51.9471 20.4508 51.3687 19.8524 49.2191 19.8771C49.2191 19.8726 48.6273 19.5441 48.6273 19.5441L48.4537 19.4472L47.5012 18.9815C47.5012 18.9815 46.7271 18.729 46.7223 18.729C46.7223 18.7015 46.5401 18.4024 46.5401 18.4024C46.2888 17.9697 45.9396 17.5415 45.6385 17.1637L45.5454 17.0557C45.5454 17.0557 45.0169 16.3604 44.9555 16.2735C45.1224 15.9295 44.9814 15.4346 44.9814 15.4346C44.9814 15.4346 44.8912 15.6002 44.7464 15.7767C44.5996 15.9551 44.2093 16.2497 43.9368 16.3906L43.793 16.4803L45.742 19.0181L45.9473 19.2935Z" fill="white"/>
<path fill-rule="evenodd" clip-rule="evenodd" d="M47.3985 17.2824L47.6977 17.6703C47.7399 17.7069 48.3586 18.0418 48.3586 18.0418L48.5927 18.1671L49.3034 18.5715L49.9547 18.985L50.0027 18.9987L50.9743 19.0572C51.5566 19.1048 51.898 19.3125 52.0764 19.4305C52.6903 19.8523 52.3613 20.4844 52.3613 20.4844C52.3613 20.4844 53.1814 19.7461 52.6433 18.9456C52.4409 18.6703 52.1628 18.4031 51.3455 18.3135C51.3455 18.3135 50.3441 18.1817 50.3413 18.1817C50.3413 18.1753 49.8041 17.8277 49.8041 17.8277L49.0972 17.4114L48.9169 17.3071L48.3366 17.0674L46.8258 14.7501C46.9438 14.3421 46.7174 13.9404 46.7174 13.9404L46.6033 14.2003C46.5055 14.4262 46.2484 14.6833 45.8475 14.9303L45.7285 14.9925L47.3054 17.1415C47.3054 17.1434 47.3985 17.2824 47.3985 17.2824Z" fill="white"/>
<path fill-rule="evenodd" clip-rule="evenodd" d="M43.8148 20.6882C43.8148 20.6891 44.4977 21.0504 44.4977 21.0504L45.1404 21.3862L45.2238 21.4292L45.6967 21.6817L46.4967 22.0989C46.5446 22.1126 46.6405 22.1126 46.6405 22.1126L47.6688 22.0513C48.2596 22.0403 48.9474 22.0513 49.4097 22.2507C49.9162 22.5005 49.7445 22.9515 49.7445 22.9515C49.7445 22.9515 50.2692 22.5938 50.1704 22.1675C50.1176 21.8079 49.6668 21.3331 48.1676 21.2499C47.6947 21.2224 46.9878 21.2874 46.9878 21.2874H46.9225C46.9225 21.2764 46.2511 20.8638 46.2511 20.8638L45.9681 20.711C45.9298 20.6946 45.0387 20.2463 45.0387 20.2463C45.0387 20.2463 44.4737 20.0349 44.4728 20.0331C44.4728 20.0167 43.9663 19.3433 43.9663 19.3433L43.7802 19.0936C43.7783 19.0926 43.2421 18.3516 43.2421 18.3516L43.0129 18.0296C42.9975 18.0122 42.7021 17.5758 42.7021 17.5758C42.7261 17.5813 43.0081 17.1696 42.9764 16.7305C42.9381 16.7899 42.9083 16.8055 42.6992 16.9757C42.4853 17.1412 41.8551 17.4102 41.4331 17.5163L41.2432 17.5639L43.4771 20.3606L43.8148 20.6882Z" fill="white"/>
</svg>
