<svg width="101" height="56" viewBox="0 0 101 56" fill="none" xmlns="http://www.w3.org/2000/svg">
<path d="M34.8692 53.8095C34.0221 54.7465 33.0878 55.3589 31.9586 55.6651C31.2776 55.8506 30.5882 55.9249 29.8998 55.7857C28.3299 55.4665 27.5163 54.3615 27.4792 52.4873C27.4513 51.1132 27.4717 49.7382 27.4717 48.3641C27.4717 46.8036 27.4801 45.2439 27.4643 43.6843C27.4643 43.3614 27.5496 43.2473 27.8762 43.2705C28.3058 43.3011 28.882 43.1239 29.1306 43.34C29.421 43.5915 29.2188 44.1825 29.2234 44.6241C29.2327 46.8945 29.2234 49.1648 29.2309 51.4352C29.2319 51.7899 29.253 52.1443 29.2939 52.4966C29.4628 53.9366 30.1865 54.5239 31.607 54.3318C32.7278 54.1806 33.6751 53.6629 34.4563 52.8399C34.5509 52.7406 34.624 52.6228 34.6711 52.494C34.7181 52.3652 34.7382 52.228 34.73 52.0911C34.7198 49.3077 34.73 46.5308 34.7142 43.7511C34.7142 43.3614 34.8181 43.2306 35.2023 43.2705C35.5108 43.3003 35.8215 43.3003 36.1301 43.2705C36.4353 43.2426 36.4799 43.3697 36.4789 43.6416C36.4622 47.518 36.4539 51.3944 36.4539 55.2708C36.4539 55.5686 36.3852 55.6809 36.0753 55.654C35.694 55.6215 35.1939 55.7746 34.9564 55.5834C34.7031 55.3812 34.9017 54.8616 34.8775 54.4821C34.8599 54.2975 34.8692 54.1119 34.8692 53.8095Z" fill="white"/>
<path d="M7.04034 45.1242C8.16578 43.8772 9.45265 43.1962 11.0299 43.1127C12.9598 43.0106 14.3162 44.1453 14.3598 46.0743C14.4285 49.1778 14.3821 52.2832 14.3905 55.3877C14.3905 55.5871 14.3385 55.6799 14.1325 55.6474C14.1171 55.6465 14.1016 55.6465 14.0861 55.6474C13.6417 55.6354 13.073 55.7857 12.7872 55.5658C12.5209 55.3589 12.712 54.7577 12.7111 54.33C12.7028 51.9984 12.7111 49.6658 12.7111 47.3333C12.7255 46.8398 12.6708 46.3467 12.5488 45.8683C12.2917 44.9692 11.6655 44.4766 10.7442 44.5359C10.1029 44.5642 9.47383 44.7213 8.89456 44.9978C8.31529 45.2744 7.79764 45.6648 7.37248 46.1457C7.29586 46.2293 7.23671 46.3273 7.19847 46.4341C7.16023 46.5408 7.14368 46.6541 7.14981 46.7673C7.15724 49.5786 7.1498 52.3899 7.16279 55.2012C7.16279 55.5547 7.08951 55.6938 6.7156 55.6549C6.37602 55.626 6.03459 55.626 5.69501 55.6549C5.43986 55.6706 5.39069 55.5704 5.39161 55.3366C5.4046 51.4287 5.41078 47.5207 5.41017 43.6128C5.41017 43.3437 5.50295 43.2806 5.75624 43.2732C7.04311 43.2361 7.04313 43.2287 7.04313 44.5183L7.04034 45.1242Z" fill="white"/>
<path d="M60.2699 45.139C61.2079 44.0674 62.2832 43.4253 63.5775 43.1683C64.1522 43.0427 64.7472 43.0427 65.3218 43.1683C66.6597 43.4819 67.5551 44.522 67.5866 45.9601C67.6376 48.3233 67.6191 50.6873 67.6274 53.0514C67.6274 53.8233 67.6209 54.5962 67.6274 55.3709C67.6274 55.5899 67.5736 55.6725 67.3435 55.6604C67.0038 55.6357 66.6627 55.6357 66.3229 55.6604C65.9898 55.691 65.9193 55.5676 65.9203 55.2512C65.9342 52.6246 65.9277 49.998 65.9286 47.3713C65.9427 46.924 65.9116 46.4764 65.8358 46.0353C65.6354 45.0481 64.908 44.458 63.919 44.5415C62.6741 44.6243 61.5076 45.1784 60.6568 46.091C60.5602 46.187 60.4847 46.3021 60.435 46.4289C60.3853 46.5558 60.3626 46.6915 60.3682 46.8276C60.3794 49.6241 60.3682 52.4205 60.3849 55.2169C60.3849 55.5945 60.2745 55.6892 59.921 55.6595C59.5082 55.6251 58.9515 55.794 58.7149 55.5843C58.4365 55.3403 58.6286 54.7716 58.6295 54.3457C58.6388 50.807 58.6638 47.2693 58.6666 43.7315C58.6666 43.3734 58.7501 43.2333 59.1194 43.2787C59.4887 43.3242 59.9609 43.1294 60.191 43.3521C60.4211 43.5747 60.2439 44.0553 60.2634 44.4218C60.2782 44.6148 60.2699 44.8152 60.2699 45.139Z" fill="white"/>
<path d="M20.9473 55.9323C19.1112 55.924 17.6072 55.2244 16.4335 53.7984C16.2304 53.5506 16.2758 53.4337 16.5105 53.2723C16.8022 53.0709 17.0811 52.8515 17.3456 52.6154C17.5311 52.4503 17.6239 52.4753 17.7724 52.6711C18.5527 53.7214 19.615 54.2697 20.9093 54.4079C22.1247 54.5378 23.2492 53.9162 23.5536 52.9234C23.8477 51.9604 23.5072 51.1652 22.597 50.7403C21.7712 50.3553 20.8759 50.1716 20.013 49.8969C19.4816 49.7419 18.9659 49.5372 18.4729 49.2855C17.1081 48.5479 16.5245 47.4354 16.7054 45.9277C16.7908 45.2795 17.0739 44.6734 17.5162 44.1919C17.9585 43.7105 18.5385 43.3771 19.1771 43.2371C21.2953 42.7481 23.1351 43.2974 24.6725 44.8533C24.8952 45.0779 24.8636 45.2105 24.6447 45.4008C24.3663 45.6429 24.152 46.0576 23.8412 46.143C23.4765 46.2358 23.3513 45.7041 23.0711 45.4935C22.1192 44.7726 21.0912 44.3755 19.8831 44.6121C19.1112 44.7633 18.561 45.3098 18.4599 46.0038C18.3411 46.8268 18.6538 47.4215 19.4295 47.8149C20.2877 48.2501 21.2396 48.3994 22.1452 48.6908C22.5566 48.8171 22.9595 48.9699 23.3513 49.1482C24.6966 49.78 25.4407 50.8117 25.3925 52.3204C25.3396 53.8744 24.5639 54.9609 23.1221 55.5556C22.4317 55.8326 21.6907 55.961 20.9473 55.9323V55.9323Z" fill="white"/>
<path d="M71.6783 49.4247C71.6532 50.2597 71.6941 51.0855 71.9316 51.8955C72.2944 53.135 72.9698 54.0777 74.3124 54.317C75.6549 54.5564 76.7154 53.9997 77.5393 52.9522C77.6524 52.806 77.7577 52.654 77.8547 52.4967C78.2259 51.9066 78.2259 51.9057 78.8521 52.235C79.7233 52.6915 79.7215 52.6906 79.1843 53.5525C77.2878 56.5957 72.9466 56.3963 71.2979 54.3773C70.6067 53.5284 70.2235 52.5495 70.0611 51.4853C69.7642 49.5369 69.7772 47.608 70.577 45.7617C71.3703 43.9311 72.9893 42.9783 75.1511 43.0377C76.9306 43.0859 78.5951 44.2735 79.2557 45.9417C79.3837 46.2664 79.3754 46.4353 78.9839 46.5104C78.638 46.5845 78.3 46.6914 77.9744 46.8296C77.7128 46.9344 77.62 46.8704 77.53 46.6032C77.1412 45.4481 76.3285 44.7708 75.1223 44.5871C73.9635 44.4108 73.0728 44.8608 72.4391 45.8202C71.9427 46.5717 71.7692 47.4364 71.6802 48.3141C71.6477 48.6806 71.6783 49.0545 71.6783 49.4247Z" fill="white"/>
<path d="M2.02459 47.1153C2.02459 49.8162 2.0181 52.517 2.03202 55.2179C2.03202 55.5574 1.96242 55.6874 1.60336 55.6549C1.21861 55.6243 0.832048 55.6243 0.447304 55.6549C0.134632 55.6781 0.0678227 55.5621 0.0696783 55.2698C0.0826677 53.3873 0.077108 51.5039 0.077108 49.6213C0.077108 46.1328 0.077108 42.6445 0.077108 39.1565C0.077108 38.5599 0.0770999 38.56 0.695023 38.56C1.00398 38.56 1.3148 38.5813 1.62284 38.5544C1.95035 38.5256 2.03666 38.6472 2.03294 38.9663C2.01717 40.5436 2.02644 42.1153 2.02644 43.6889L2.02459 47.1153Z" fill="white"/>
<path d="M41.6384 45.9035C42.0717 45.1872 42.4623 44.4913 43.0719 43.9421C43.7214 43.352 44.4989 43.1228 45.3646 43.1228C45.603 43.1228 45.6429 43.2156 45.6429 43.4225C45.6299 43.8075 45.6318 44.1944 45.6429 44.5804C45.6485 44.7789 45.6215 44.8856 45.3747 44.8884C44.1853 44.9051 43.3336 45.5379 42.711 46.4833C42.0365 47.4937 41.5874 48.5709 41.6319 49.8457C41.6941 51.6355 41.6403 53.4299 41.6551 55.2224C41.6551 55.5453 41.6125 55.7012 41.2385 55.6622C40.8118 55.6176 40.2337 55.7986 39.986 55.5805C39.6984 55.3282 39.8988 54.739 39.8932 54.2974C39.8849 50.7717 39.8932 47.2506 39.8775 43.7277C39.8775 43.3631 39.9702 43.2295 40.3358 43.2731C40.7579 43.3232 41.3267 43.0875 41.5689 43.3659C41.7785 43.6071 41.6329 44.1592 41.6375 44.572C41.6422 45.0183 41.6384 45.4609 41.6384 45.9035Z" fill="white"/>
<path d="M97.0502 52.9911C97.0502 53.853 97.0502 54.715 97.0502 55.5769C97.0502 55.7625 97.1263 55.9851 96.7876 55.9963C96.449 56.0074 96.5223 55.7782 96.5223 55.5964C96.5176 54.5312 96.5149 53.4624 96.5223 52.3991C96.5223 52.2637 96.3961 52.0076 96.6846 52.0169C96.924 52.0252 97.2348 51.8489 97.3666 52.2729C97.6449 53.1831 97.9743 54.0794 98.2823 54.9803C98.312 55.0657 98.351 55.1492 98.4196 55.3153C98.7704 54.2789 99.0951 53.3167 99.4217 52.3555C99.5247 52.0521 99.9292 51.886 100.225 52.0113C100.368 52.0716 100.318 52.1876 100.318 52.2831C100.318 53.4271 100.318 54.5702 100.323 55.7161C100.323 55.8961 100.298 56 100.075 55.9944C99.8513 55.9889 99.8355 55.8673 99.8364 55.6985C99.8364 54.7706 99.8364 53.8428 99.8364 52.8918C99.7223 52.9373 99.6982 53.0235 99.6675 53.1163C99.3892 53.9625 99.1016 54.8077 98.8195 55.6539C98.7546 55.8497 98.6915 56 98.4178 56C98.1441 56 98.0819 55.8488 98.0179 55.653C97.7284 54.766 97.4383 53.879 97.1476 52.992L97.0502 52.9911Z" fill="white"/>
<path d="M93.7241 54.2148C93.7241 53.7834 93.6944 53.3492 93.7324 52.9214C93.7667 52.5336 93.6109 52.4445 93.2685 52.4807C93.0393 52.5048 92.8046 52.4733 92.5754 52.4882C92.3629 52.5021 92.3221 52.4037 92.3193 52.2154C92.3193 52.0066 92.4363 52.0048 92.5866 52.0048C93.4946 52.0048 94.4032 52.0048 95.3125 52.0048C95.4869 52.0048 95.5982 52.0224 95.5973 52.2488C95.5964 52.4752 95.4795 52.4993 95.3078 52.4863H95.2614C94.9256 52.4984 94.4728 52.3824 94.2863 52.554C94.0618 52.7609 94.2195 53.2202 94.2139 53.5746C94.2037 54.2677 94.2139 54.9608 94.2139 55.6539C94.2139 55.8088 94.2408 55.9517 93.995 55.9563C93.7491 55.961 93.7166 55.8534 93.7241 55.6529C93.7306 55.1696 93.7241 54.6954 93.7241 54.2148Z" fill="white"/>
<path d="M91.3766 0.539064C91.3766 0.0751582 91.2522 0 90.8199 0C75.7856 0.0123708 60.7513 0.0157828 45.717 0.0102159C30.6364 0.0102159 15.5557 0.00711413 0.475058 0.000928718C0.092799 0.000928718 -0.000921014 0.0872243 6.79871e-06 0.474122C0.0111406 12.0953 0.0111406 23.7158 6.79871e-06 35.3357C6.79871e-06 35.7486 0.103937 35.8321 0.502897 35.8312C30.6178 35.8213 60.7325 35.8213 90.8468 35.8312C91.2652 35.8312 91.3747 35.7319 91.3747 35.307C91.3617 23.7186 91.3623 12.1293 91.3766 0.539064ZM13.7613 27.9374C13.3018 27.9951 12.8393 28.0261 12.3761 28.0301C8.78733 28.0144 6.31936 26.2571 5.12062 22.8901C4.99258 22.531 5.06773 22.4261 5.41566 22.3334C5.91977 22.1938 6.41543 22.0252 6.90016 21.8286C7.15716 21.7303 7.25737 21.7822 7.34552 22.0495C7.89014 23.6852 8.83743 25.0185 10.4899 25.6512C12.1803 26.3007 13.8708 26.1996 15.3785 25.1242C17.3863 23.6935 17.1182 20.4527 14.9406 19.3087C13.59 18.6078 12.1873 18.0122 10.745 17.5273C9.29577 17.0309 7.8892 16.4139 6.82222 15.2653C4.89051 13.1842 5.3136 9.5073 7.66375 7.7027C9.86174 6.01501 14.2809 5.93429 16.5216 8.35681C17.3213 9.22246 17.8604 10.2254 18.2232 11.3388C18.2965 11.5633 18.2232 11.5977 18.0497 11.645C17.531 11.7879 17.0087 11.9233 16.5012 12.0968C16.2544 12.1822 16.195 12.1191 16.1208 11.8899C15.7728 10.8285 15.2421 9.87471 14.293 9.23638C12.8576 8.26867 11.2859 8.12857 9.70772 8.75299C7.54685 9.60843 7.19519 12.7806 9.04525 14.2484C9.85616 14.8933 10.8081 15.2347 11.7647 15.5882C13.161 16.1068 14.5843 16.5614 15.9018 17.2721C17.3752 18.0682 18.4941 19.1621 18.8021 20.8906C19.4479 24.4998 17.5654 27.4011 13.7613 27.9374ZM32.1719 27.6961C31.6013 27.6766 31.0288 27.6813 30.4582 27.6961C30.2179 27.7017 30.1474 27.6173 30.1326 27.3788C30.0973 26.8221 30.024 26.2747 29.9563 25.6206C28.996 26.6737 27.9235 27.3677 26.6329 27.6822C25.1029 28.0533 23.6416 28.0134 22.3445 26.9529C20.372 25.3404 20.4212 21.7906 22.7982 20.1242C24.1983 19.1417 25.7802 18.6147 27.4067 18.1888C28.1805 17.9866 28.9617 17.8131 29.7457 17.6563C29.9851 17.609 30.0481 17.5143 30.0352 17.2926C30.0166 16.9688 30.05 16.6431 30.012 16.3211C29.8756 15.1883 29.0313 14.4191 27.7156 14.2039C25.9175 13.9088 24.3263 14.6483 23.4143 16.2302C23.2779 16.4668 23.1842 16.4779 22.9671 16.349C22.557 16.105 22.132 15.8851 21.7062 15.6735C21.4863 15.565 21.4622 15.4638 21.5921 15.2523C22.634 13.5461 24.1463 12.5616 26.1272 12.3538C26.9735 12.2572 27.8299 12.2986 28.6629 12.4763C30.9658 12.9866 32.1552 14.4563 32.171 16.8454C32.1868 19.2577 32.171 21.6644 32.171 24.0739C32.171 25.1678 32.1097 26.2673 32.4493 27.3343C32.5263 27.5644 32.4725 27.7073 32.171 27.6961H32.1719ZM41.8063 8.26589C41.8184 8.49413 41.7247 8.50248 41.528 8.47279C41.1179 8.40426 40.7039 8.36148 40.2884 8.34474C39.2103 8.31319 38.5812 8.84299 38.507 9.90997C38.4504 10.7255 38.4968 11.5466 38.481 12.365C38.481 12.6433 38.6499 12.6025 38.8169 12.6025C39.6204 12.6025 40.4239 12.6257 41.2292 12.5923C41.6143 12.5756 41.6996 12.712 41.6718 13.0562C41.6485 13.396 41.6485 13.737 41.6718 14.0768C41.6857 14.318 41.6106 14.3932 41.3647 14.3885C40.577 14.3727 39.7874 14.4034 39.0015 14.3737C38.6249 14.3588 38.5089 14.4516 38.5135 14.8478C38.5349 16.902 38.5228 18.9561 38.5237 21.0112C38.5237 23.0812 38.5172 25.1502 38.5311 27.2202C38.5311 27.5449 38.4857 27.698 38.1118 27.6627C37.696 27.6247 37.2777 27.6247 36.862 27.6627C36.4964 27.6952 36.4408 27.557 36.4426 27.2257C36.4538 23.473 36.4563 19.7194 36.4501 15.9649C36.4501 15.5641 36.4324 15.1614 36.4556 14.7587C36.4723 14.4674 36.4 14.357 36.0845 14.3709C35.4675 14.3978 34.8487 14.3709 34.2289 14.3839C33.9691 14.3913 33.8717 14.318 33.8856 14.0499C33.9089 13.6791 33.9089 13.3072 33.8856 12.9365C33.8642 12.6312 33.9932 12.5765 34.2632 12.583C34.8802 12.6006 35.4991 12.5774 36.1188 12.5941C36.3814 12.6015 36.4547 12.519 36.4584 12.2564C36.4742 11.3008 36.3944 10.3442 36.5308 9.38853C36.8091 7.47074 38.1211 6.39726 40.0732 6.53086C40.1808 6.53828 40.2884 6.54943 40.3961 6.56334C42.2563 6.80643 41.7173 6.54201 41.8054 8.26589H41.8063ZM54.1351 25.0983C52.9206 27.0142 51.1012 27.8223 48.9097 27.9095C47.2582 27.9763 45.717 27.6525 44.4636 26.4733C43.3836 25.4583 42.8529 24.1537 42.6024 22.7342C42.2229 20.5826 42.2248 18.4291 42.9438 16.3369C43.6499 14.28 44.9507 12.8298 47.1895 12.4058C50.0481 11.8639 52.5847 13.2983 53.5858 16.0326C54.0813 17.3854 54.1945 18.7928 54.2121 20.218C54.2121 20.5362 54.0451 20.513 53.8336 20.513C52.3491 20.5093 50.8664 20.5093 49.3856 20.513C47.9187 20.513 46.451 20.5204 44.9841 20.5065C44.6955 20.5065 44.5907 20.5631 44.5907 20.8776C44.5907 22.004 44.7475 23.0914 45.2875 24.0944C46.4445 26.2422 48.8911 26.5568 50.7829 25.6642C51.6765 25.2608 52.4092 24.5696 52.864 23.701C52.979 23.4801 53.0876 23.3976 53.3131 23.5767C53.5005 23.7102 53.6947 23.834 53.8948 23.9478C54.5851 24.3913 54.5851 24.3922 54.1351 25.0983ZM89.9682 34.947C78.9538 34.9377 67.9397 34.9377 56.926 34.947C56.5409 34.947 56.4416 34.8542 56.4426 34.4664C56.4531 23.4359 56.4531 12.4052 56.4426 1.3741C56.4426 0.965858 56.5706 0.910189 56.9343 0.910189C62.4492 0.92256 67.9641 0.925329 73.4791 0.918525C78.9785 0.918525 84.4777 0.915756 89.9765 0.910189C90.3643 0.910189 90.4933 0.975121 90.4933 1.4047C90.4785 12.4197 90.4785 23.435 90.4933 34.4506C90.4914 34.8867 90.3541 34.9479 89.9682 34.947Z" fill="white"/>
<path d="M55.6058 55.3542C55.3998 54.651 55.3674 53.9291 55.3674 53.2017C55.3674 50.9462 55.3785 48.6907 55.3535 46.4352C55.3377 45.0138 54.5064 43.9041 53.1768 43.4068C52.455 43.1368 51.7025 43.0895 50.9501 43.0895C49.2197 43.0895 47.8706 43.8317 46.8584 45.2234C46.6125 45.5612 46.5652 45.7848 47.0291 45.9518C47.2847 46.0596 47.5287 46.193 47.7574 46.3498C47.9699 46.4788 48.0942 46.5131 48.252 46.232C48.7465 45.3478 49.5277 44.8356 50.5186 44.6352C52.3687 44.2641 53.6518 45.2689 53.6286 47.0559C53.6286 47.3491 53.4997 47.4196 53.2687 47.4697C52.5626 47.6246 51.85 47.7582 51.156 47.9559C49.7764 48.3493 48.4115 48.7909 47.3195 49.7901C46.3054 50.718 46.0057 51.8935 46.246 53.2008C46.4771 54.4589 47.2499 55.3236 48.4728 55.6771C49.8886 56.0872 51.2117 55.7272 52.441 54.9692C52.8456 54.7196 53.1712 54.3745 53.5758 54.0024C53.624 54.5285 53.6741 54.9581 53.6982 55.3895C53.7121 55.6381 53.7966 55.743 54.0629 55.73C54.4794 55.7059 54.897 55.7059 55.3136 55.73C55.6355 55.7532 55.6856 55.6233 55.6058 55.3542ZM52.8623 53.0635C51.9892 53.661 51.1208 54.226 50.0269 54.3142C49.2178 54.3791 48.5424 54.1388 48.1434 53.4151C47.7445 52.6914 47.8066 51.9306 48.3039 51.2422C48.7548 50.6178 49.4173 50.2828 50.1048 49.9933C51.1254 49.561 52.2119 49.3216 53.29 49.0655C53.5758 48.9978 53.6287 49.1129 53.6194 49.3689C53.6036 49.8328 53.6194 50.2967 53.6194 50.7606C53.6194 51.0232 53.5813 51.2932 53.6268 51.5474C53.7502 52.2563 53.4236 52.6803 52.8651 53.0635H52.8623Z" fill="white"/>
<path d="M89.9729 52.5829C89.85 52.5197 89.7313 52.4488 89.6175 52.3704C89.3921 52.1849 89.2408 52.17 89.1026 52.4808C88.9384 52.852 88.6489 53.1386 88.352 53.4086C86.8137 54.8208 83.5979 55.0231 82.6441 51.9177C82.4892 51.3679 82.4112 50.7993 82.4121 50.2281C82.4047 49.9015 82.4604 49.7791 82.8306 49.7874C84.0033 49.8171 85.177 49.7985 86.3563 49.7985C87.5624 49.7985 88.7686 49.7883 89.9701 49.806C90.2596 49.8106 90.3264 49.7317 90.3264 49.4478C90.3386 48.6911 90.2699 47.9353 90.1213 47.1932C89.843 45.9147 89.3234 44.7689 88.2509 43.9403C86.3656 42.4855 82.4233 42.5226 81.1318 46.2357C80.5129 48.0162 80.5027 49.8357 80.8256 51.6672C80.9963 52.633 81.3415 53.5348 81.9761 54.3031C82.9262 55.4526 84.1982 55.8136 85.6317 55.8664C87.5606 55.936 89.0822 55.217 90.1955 53.649C90.6548 52.9976 90.639 52.9865 89.9729 52.5829ZM82.4298 47.9438C82.5226 47.2211 82.6719 46.5169 83.0625 45.8878C83.6814 44.8923 84.5851 44.4367 85.7532 44.5137C86.8378 44.5842 87.5875 45.1632 88.0607 46.1142C88.3603 46.7173 88.4513 47.3714 88.5246 48.0329C88.558 48.3428 88.3752 48.3112 88.1878 48.3112H85.4554C84.56 48.3112 83.6647 48.2973 82.7703 48.3196C82.4604 48.3242 82.3945 48.2194 82.4298 47.9466V47.9438Z" fill="white"/>
<path d="M60.4137 20.0073C60.4211 21.2032 60.4944 22.2795 60.8321 23.3177C61.2765 24.6872 62.0661 25.7439 63.5599 26.0501C65.1984 26.386 66.4843 25.7551 67.5077 24.4942C67.793 24.1493 68.0334 23.7695 68.2231 23.3641C68.327 23.1349 68.4272 23.1293 68.6304 23.237C69.0516 23.4596 69.4849 23.661 69.9182 23.8614C70.1037 23.9477 70.152 24.0284 70.0592 24.2437C68.9551 26.8035 66.2301 28.2685 63.5061 27.877C60.9332 27.5058 59.3903 26.0315 58.7315 23.6155C58.0616 21.155 58.0719 18.6694 58.8902 16.2292C59.6473 13.9737 61.5224 12.4966 63.6963 12.3324C66.2756 12.1348 68.2425 13.0793 69.4895 15.3775C70.0007 16.3174 69.9766 16.3322 68.9885 16.6486C68.6229 16.7655 68.2258 17.0197 67.8965 16.9492C67.5328 16.875 67.5411 16.3313 67.3555 16.0084C66.6504 14.7781 65.627 14.0915 64.201 14.1231C62.749 14.1546 61.733 14.895 61.1216 16.1949C60.5324 17.4363 60.4304 18.7714 60.4137 20.0073Z" fill="white"/>
<path d="M30.0306 21.6885C30.0306 22.0893 29.9889 22.4966 30.0408 22.8947C30.1188 23.4987 29.8849 23.8921 29.408 24.2446C28.4385 24.9609 27.4736 25.68 26.2637 25.9314C25.4008 26.1105 24.5417 26.1467 23.8087 25.5176C22.8586 24.703 22.7445 23.25 23.5545 22.2248C24.2745 21.3128 25.3034 20.8925 26.35 20.5139C27.4504 20.1168 28.5925 19.8645 29.7328 19.6102C30.0195 19.5453 30.0371 19.6622 30.0334 19.8886C30.025 20.4842 30.0306 21.0864 30.0306 21.6885Z" fill="white"/>
<path d="M48.252 18.7956C47.1711 18.7956 46.0902 18.7844 45.0102 18.8021C44.6976 18.8076 44.5658 18.7446 44.6057 18.4013C44.7616 17.0578 45.0696 15.7802 46.183 14.8756C47.7352 13.6138 50.1308 14.0239 51.1932 15.7106C51.735 16.5716 51.9086 17.531 51.9865 18.5237C52.0106 18.8355 51.8176 18.7919 51.6348 18.7928L48.252 18.7956Z" fill="white"/>
<path d="M83.4291 16.695C82.5847 13.8429 80.5528 12.3612 77.6274 12.3343C74.8987 12.3055 72.8399 13.6796 71.8945 16.169C71.4519 17.3343 71.2784 18.5507 71.245 19.7281C71.1949 20.4091 71.2719 21.027 71.3192 21.6393C71.3552 22.0073 71.4125 22.3729 71.4909 22.7342C72.1236 26.0103 74.2743 27.8789 77.4762 27.9364C80.3626 27.9874 82.453 26.5447 83.3502 23.8021C84.1212 21.4473 84.1286 19.0545 83.4291 16.695ZM81.1281 23.6536C80.5436 25.2717 79.2493 26.1448 77.6024 26.1587C75.9175 26.1689 74.6473 25.307 73.995 23.6954C73.5311 22.5477 73.3994 21.3415 73.4179 20.1316C73.4059 18.9979 73.5014 17.8965 73.8865 16.837C74.5443 15.0277 75.7987 14.1055 77.5866 14.1148C79.355 14.1241 80.641 15.0343 81.2218 16.8481C81.9474 19.112 81.9399 21.4065 81.1281 23.6555V23.6536Z" fill="white"/>
</svg>
