<svg width="48" height="48" viewBox="0 0 48 48" xmlns="http://www.w3.org/2000/svg"><g fill="none" fill-rule="evenodd"><path fill-opacity=".01" fill="#FFF" d="M0 0h48v48H0z"/><path d="M37.558 19.806c2.092 0 3.057 2.256 3.057 4.271 0 1.894-.643 4.191-3.098 4.191-.844 0-1.609-.402-2.011-1.088h-.04v3.466H32.69v-10.64h2.695v.888c.362-.524.805-1.088 2.173-1.088zm-21.846-2.821v7.092c0 3.063-1.408 4.232-4.224 4.232-2.856 0-4.103-1.572-4.103-3.99v-1.531h3.097v1.249c0 .846 0 1.652.925 1.652.793 0 .844-.871.845-1.4v-7.304h3.46zm4.265 2.82c2.896 0 4.184 1.774 4.184 4.917H18.77c.08.927.563 1.572 1.448 1.572.443 0 .925-.202 1.167-.564H24c-.564 1.732-2.092 2.538-3.782 2.538-2.333 0-4.104-1.53-4.104-4.23 0-2.338 1.53-4.232 3.863-4.232zm8.247 0c2.897 0 4.184 1.774 4.184 4.917h-5.39c.08.927.562 1.572 1.447 1.572.443 0 .926-.202 1.167-.564h2.615c-.563 1.732-2.132 2.538-3.782 2.538-2.333 0-4.103-1.53-4.103-4.23 0-2.338 1.529-4.232 3.862-4.232zm8.368 2.257c-1.005 0-1.207 1.008-1.207 1.975 0 .927.202 1.975 1.207 1.975 1.006 0 1.247-1.048 1.247-1.975 0-.967-.241-1.975-1.247-1.975zm-16.374-.282c-.805 0-1.287.484-1.408 1.33h2.655c0-.725-.523-1.33-1.247-1.33zm8.247 0c-.804 0-1.287.484-1.408 1.33h2.656c0-.725-.523-1.33-1.248-1.33z" fill="#000"/></g></svg>