<svg width="48" height="48" viewBox="0 0 48 48" xmlns="http://www.w3.org/2000/svg"><g fill="none" fill-rule="evenodd"><path fill-opacity=".01" fill="#FFF" d="M0 0h48v48H0z"/><path d="M24 13.662c11.216 0 20.308 4.546 20.308 10.153 0 5.608-9.092 10.154-20.308 10.154S3.692 29.423 3.692 23.815c0-5.607 9.092-10.153 20.308-10.153zm0 1.28c-9.886 0-17.929 3.98-17.929 8.873 0 4.894 8.043 8.875 17.929 8.875s17.928-3.981 17.928-8.875c0-4.893-8.042-8.874-17.928-8.874zm1.215 3.698a.22.22 0 0 1 .22.218v9.89a.216.216 0 0 1-.22.217h-2.44a.215.215 0 0 1-.218-.217v-9.283a.202.202 0 0 0-.204-.203h-.328c-.031 0-.031-.03-.031-.053v-.516c0-.024 0-.053.031-.053zm8.554 0c.107 0 .237.015.29.144l3.332 9.915a.227.227 0 0 1-.036.19.188.188 0 0 1-.158.076h-2.394c-.118 0-.24-.09-.289-.215l-2.065-6.407s-.025-.09-.098-.09c-.076 0-.1.089-.1.09l-2.043 6.407c-.048.123-.171.215-.287.215h-2.395a.193.193 0 0 1-.158-.076.22.22 0 0 1-.037-.19l3.075-9.142a.347.347 0 0 0 .024-.117c0-.107-.082-.178-.204-.178h-.281c-.027 0-.055-.027-.055-.053v-.516c0-.028.027-.054.055-.054zm-19.746 0c.12 0 .217.098.217.218v3.296c0 .066.043.11.108.11.016 0 .087-.006.16-.113l2.323-3.275c.092-.135.257-.236.383-.236h2.674c.07 0 .135.04.172.105a.206.206 0 0 1 0 .209l-2.981 4.397a.327.327 0 0 0-.046.135c0 .014.004.023.006.034.003.014.01.03.018.044.007.011.011.021.022.037l3.566 5.025c.054.076.063.156.026.226a.211.211 0 0 1-.173.113h-2.816c-.127 0-.29-.101-.38-.237l-2.794-3.905-.01-.014c-.03-.044-.068-.099-.15-.099-.069 0-.108.049-.108.134v3.904c0 .12-.098.217-.217.217H11.65a.214.214 0 0 1-.217-.217v-9.283a.202.202 0 0 0-.205-.203H10.9c-.027 0-.054-.026-.054-.053v-.516c0-.028.026-.053.054-.053z" fill="#000"/></g></svg>