<svg width="48" height="48" viewBox="0 0 48 48" xmlns="http://www.w3.org/2000/svg"><g fill="none" fill-rule="evenodd"><path fill-opacity=".01" fill="#FFF" d="M0 0h48v48H0z"/><path d="M24 35.815c5.501 0 10.38-1.93 13.404-4.905l-2.725.012c-2.576 2.178-6.343 3.55-10.611 3.55-7.964 0-14.18-4.772-14.18-10.657 0-6.788 6.216-10.656 14.18-10.656.506.002.912.237.608.678-1.655 2.002-6.366 8.447-7.226 9.843-1.695 2.753-1.654 6.143 2.5 6.381h17.463c.893 0 1.119-.422 1.442-.86a9 9 0 0 0 1.76-5.386c-.003-5.058-3.543-8.849-8.752-10.713l-.807 1.21c4.329 1.606 7.191 4.85 7.191 9.503a8.3 8.3 0 0 1-.34 2.352c-.193.657-.571 1.212-1.288 1.212H22.68c-1.786 0-1.096-1.852-.434-2.75.959-1.727 6.212-8.925 7.477-10.266.322-.492 1.225-1.51-.02-1.901A24.65 24.65 0 0 0 24 11.815c-9.176 0-16.61 4.737-16.615 12-.005 7.332 7.439 12 16.615 12" fill="#000"/></g></svg>