<svg width="138" height="65" fill="none" xmlns="http://www.w3.org/2000/svg"><path fill-rule="evenodd" clip-rule="evenodd" d="M25.246 30.158c-.416.414-1.326 1.545-.983 2.688.378-.369 1.138-.945 1.628-1.212l-.645-1.476ZM35.134 32.014c-.339-.343-2.575-1.705-3.183-2.01l-.718 1.856c.492.154 2.121.948 2.955 1.486l.946-1.332ZM27.848 35.195c-.782.167-1.613.645-1.613.645v.681c.376.113.792.531 1.057.871l.598-.15-.256-.419s.371-.167.834-.189c.517-.022.996.076 1.25.303l1.304-.308.172-.273c-.908-.713-2.19-1.41-3.346-1.16ZM30.25 31.559l.338-1.97c-.605-.301-1.476-.493-2.273-.493-.795 0-1.666.227-2.12.567l.605 1.744c.834-.19 2.842-.265 3.45.152Z" fill="#0F2D6B"/><path fill-rule="evenodd" clip-rule="evenodd" d="M39.597 34.816c-.037-.645-.787-2.386-1.24-2.765l7.857-3.485-6.617 6.25Zm-.724 11.532c-.337-.605-.612-1.077-.966-2.015 0 0-1.12-2.068-1.333-2.467-.188-.357-.31-.866.032-1.397.34-.531 1.18-1.265 1.673-1.56l.122 2.583s1.688 3.198 2.428 4.856c-.694-.015-1.35 0-1.956 0Zm-10.095 2.63-.757-2.6 1.733-2.431s-1.803.652-2.358.699c-.112.01-.982.182-1.169-.669 0 0-.145-.571-.145-.8 0-.216.19-.48.376-.445.345.069.532-.074.532-.074l.364-.487c-.303-.037-.654-.126-.805-.126-.149 0-.426.136-.688.209-.153-.11-.389-.314-.31-.58h2.007l.037-.229s-1.033-.462-1.435-.479c-.4-.02-.573.216-.573.216v-.381l1.137-.954-1.173-.485-.644.113.415-2.652-.219-.452-1.147.681-.037-1.503c.037-.278.57-.807 1.002-1.057l-.076-.911c-.455.277-.96.439-1.265.856-.273.374-.607.945-.568 1.439-.342-.327-.413-.863-.342-1.237.101-.517.303-.883.834-1.338-.152-.43-.189-1.211-.037-1.934.251-1.195 1.628-3.483 4.962-3.503 1.975-.011 4.376 1.216 6.012 2.459 2.098 1.589 3.328 3.056 3.422 3.546.04.21.113.505.04.684-.23-.307-1.859-1.859-1.859-1.859l-1.023 1.295 1.931 1.698c-.453.265-.91.475-1.667.379-.896-.114-2.878-1.363-2.916-2.346-.809-.344-2.65-.898-4.167-.873-.989.014-2.085.264-2.425.379-.342.113-.593-.099-.856-.213l-.12.075.75 1.158c.226.114.651-.151 1.25-.257 1.023-.184 2.41-.031 3.448.564.721.413 2.726 2.081 3.141 2.499.42.416 1.063.529 1.366.264.302-.264.733-.257.695.083-.036.339-.204.713.138.866.316.14.492-.153.72-.305.23-.153.454-.187.72-.04-.19.379-.682.989-1.1 1.329-.416.339-1.06.644-1.476.492l-.265.644 1.893 4.357c.497 1.001.564 1.269.97 1.941-3.712.61-7.129 1.825-8.273 2.295ZM18.61 54.222c.455-1.026 1.052-3.943 1.22-4.917.216-1.255.415-3.082 1.91-4.312.732-.606 1.937-.684 2.415-.544l2.118 4.307c.186.456.808.618 1.224.593-1.982.645-6.978 3.016-8.887 4.873Zm-1.926 1.252c-.57.967-2.175 2.93-2.735 3.671.607-1.211 1.077-4.138 1.038-6.411-.026-1.476-.473-4.733-.082-6.893.421-2.317 1.078-3.618 2.63-5.047.79-.728 2.408-1.658 4.72-1.029l1.87 3.518c-.999-.192-2.322-.02-3.203.657-1.66 1.274-2.219 2.991-2.494 5.498-.266 2.428-.856 4.531-1.744 6.036Zm-5.985-21.137c-.102-.186-.504-8.324-.665-11.598-.038-.756-.06-1.252-.066-1.332l.654-.482V20.8c-.477-.025-1.035-.201-1.21-.482l-.177-3.761c-.659-.05-1.333-.259-1.586-.51-.316-.316-.562-.704-.207-1.386.327.23 1.29.507 2.123.507.175 0 .546.396.758.478.241.096.646.319.836.406.172.075.278.478.33.63l.077.204c.71 1.86 6.061 15.744 6.156 15.91.101.178.455 2.827.477 3.031.027.202.937 2.322 1.112 2.526-.807-.024-2.13.438-3.218 1.501-1.059 1.035-2 3.313-2.21 4.364-.077-.556-3.056-9.654-3.184-9.881Zm-1.262-9.824c-.303-.177-1.137-.583-1.793-.556-.682.026-1.258.165-1.794.504-.227-.151-.298-.455-.152-.808.145-.353.354-.403.354-.403l-.192-3.31s.93-.662 1.183-.737c.251-.076.367-.273.367-.525.411.279 1.018.899 1.343 1.364.305.43.482.909.507 1.44.025.529.031 1.161-.077 1.818.207.177.404.328.431.605.024.281-.077.38-.177.608Zm-4.039-5.28c-.18.127-.54.676-.613 1.004-.322-.195-.65-.906-.733-1.213.282-.473.863-.928 1.142-.979-.33-.024-.86 0-1.314.077-.15-.303-.202-.835-.126-1.182l.507.021-.28-.685c.353-.302 1.692-.983 2.452-1.008.07.347.074.631.05.758-.026.126-.076.278-.23.352l-.66.338a9.598 9.598 0 0 1 1.217.017c.225.023.33.075.33.303 0 .226-.063.455-.188.631-.127.178-.5.148-.704.172.102.226.131.333.131.558 0 .231-.074.333-.275.435a4.724 4.724 0 0 0-.706.401Zm5.14-4.465c-.403-.379-1.217-1.093-2.934-1.096-1.414-.006-2.512.561-2.66 1.04-.102-.658-.026-1.102.436-1.495.507-.43 1.32-.666 2.128-.666 1.211 0 2 .323 2.447.686.542.438.633.95.583 1.531Zm-8.6-.889c-.154-.429-.348-.698-.307-1.282.052-.662.486-1.219.687-1.749.16-.418.071-1.136-.104-1.314.227-.049.69.233 1.01.152.402-.101.525-.237.676-.566.152-.327.361-.596.703-.62.312-.023.95.294 1.474.176.683-.152.958-.833 1.517-.833.557 0 1.01.73 1.54.808.531.075 1.363-.558 1.894-.354.532.203.252 1.013.657 1.338.38.304 1.263-.05 1.516-.101-.077.354-.178.607-.153.986.027.378.637 1.516.656 1.918.025.505.052.934-.149 1.39-.052-1.515-1.855-3.359-5.845-3.435-3.486-.067-5.877 1.34-5.773 3.486ZM7.283 2.191c.84-.046 1.925.18 2.48.18.558 0 1.977-.138 2.307-.391.176.404.105.825-.112 1.194.431.226 1.644.45 2.151.426 1.008-.051 2.044-.604 2.418-1.129.155.55.044 1.367-.448 1.81-.987.884-3.31 1.364-3.993 1.869-.563.417-.782.658-.934 1.01-.227-.227-.357-.413-.728-.375-.433.047-.662.477-1.09.45-.556-.032-.986-.959-1.643-.985-1.009-.039-1.412.782-1.843.81-.303.017-.71-.426-.883-.656-.305-.405-.477-1.088-.44-1.744.061-1.06.915-2.371 2.758-2.469ZM21.58 35.768l-2.042-1.408c.025-.478-.1-1.257-.132-1.666-.002-.044-.017-.115-.03-.177l2.556 1.233c-.227.354-.308.566-.384.995-.076.43-.019.669.032 1.023Zm3.113-7.935c-.643.361-1.607 1.333-1.87 2.126l-4.783-8.16 6.653 6.034Zm4.304-11.601 1.916 10.849c-.605-.304-2.492-.477-3.326-.326l1.41-10.523Zm11.66 5.524-4.015 8.56c-.378-.304-1.963-1.636-2.713-1.903l6.728-6.657Zm7.601 5.379c-.157-.207-.544-.037-.544-.037l-6.193 2.297a22.792 22.792 0 0 0-1.663-3.301l2.005-5.473s.251-.542.016-.678c-.23-.136-.607.227-.607.227l-3.643 2.988a15.688 15.688 0 0 0-5.004-3.618 16.791 16.791 0 0 0-2.233-.803l-1.129-4.33s-.099-.434-.389-.434c-.29 0-.369.411-.369.411l-.723 3.825a19.368 19.368 0 0 0-2.456-.158c-2.715 0-5.128.516-7.24 1.464-.907.406-1.758.892-2.552 1.449-.133.094-.258.194-.389.291-.75-1.935-1.343-3.515-1.453-3.989.418-.379 1.294-1.759 1.508-2.69.297-1.304.206-1.92-.107-2.907-.225-.72-.683-1.395-.654-1.851a1.18 1.18 0 0 1 .36-.74c-.085-.478-.396-.686-.765-.735-.342-.046-.608.055-.91.068-.077-.14-.229-.114-.114-.607.172-.748 1.607-1.099 2.78-1.554 1.486-.575 2.317-1.646 2.366-3.364.037-1.249-.659-2.173-1.533-2.59-.176.504-.9 1.182-1.4 1.458-.498.274-1.185.378-1.682.263.11-.919-.314-1.701-.986-2.017-.214.391-1.02.931-2.233.894C9.106.856 9.03.569 7.326.574 4.9.578 2.89 2.041 2.644 4.189c-.16 1.396.376 2.567.782 3.173-.303.227-1.01.909-1.139 1.113-.174-.204-.657-.476-1.235-.097.123.304.15.675.05 1.031C1 9.76.115 11.48.014 12.869c-.169 2.349 1.187 3.939 2.325 4.393-.25.38-.303.783-.126 1.113.116.218.353.429.834.429a1.145 1.145 0 0 0-.204 1.212c.204.504.782 1.238 1.29 1.238-.025.428.177 1.438.277 1.843-.177.328-.354.577-.327 1.183.025.631.428 1.14.932 1.243.128.303.222.637.398.838.178.203.335.449.714.7.38.254.81.457 1.314.457s.95.024 1.178-.051c.01.144.06 1.481.116 2.966-1.27 3.534-1.905 7.635-1.905 12.031v.002c.003 7.882 2.25 14.902 6.541 19.426 0 0 .247.305.935.751 0 0 1.344-2.298 3.386-4.906a17.706 17.706 0 0 1 1.762-1.919 43.658 43.658 0 0 1 2.928-2.338c2.643-1.799 5.697-3.171 8.522-3.752-3.24 1.668-5.076 2.563-8.12 5.173-1.927 1.653-4.999 4.568-7.097 8.565.437.348 1.025.704 1.72.776.444-.522 2.727-4.709 6.23-8.074 7.09-6.64 15.44-8.174 19.814-8.091.247-1.798.372-3.677.372-5.613 0-3.173-.332-6.187-.992-8.951l5.22-5.809s.362-.361.207-.569Z" fill="#0F2D6B"/><path fill-rule="evenodd" clip-rule="evenodd" d="M58.725 33.392c0 1.316.55 1.729 2.526 1.729 1.973 0 2.881-.604 4.172-3.268h.465l-.465 4.174H53.151v-.468c1.84-.465 2.032-.878 2.032-2.607V22.684c0-1.427-.357-1.837-2.032-2.25v-.468h7.603v.468c-1.592.413-2.029.74-2.029 2.142v10.816ZM69.512 18.842a1.78 1.78 0 0 1 1.783 1.783c0 .99-.795 1.815-1.783 1.815a1.83 1.83 0 0 1-1.813-1.815c0-.986.824-1.783 1.813-1.783Zm1.537 14.96c0 1.044.522 1.62 1.675 1.757v.468h-6.509v-.468c1.401-.275 1.733-.66 1.733-1.975v-5.52c0-1.262-.36-1.617-1.87-1.921v-.468l4.503-.382h.468v8.509ZM77.803 18.842h-.468l-4.2.302v.468c.963.165 1.565.658 1.565 1.536v14.879c1.565.3 3.103.41 5.053.41 5.05 0 6.969-2.635 6.969-5.82 0-3.02-2.138-5.351-4.937-5.351-1.483 0-2.748.604-3.982 1.895v-8.32Zm0 9.059c1.045-.962 1.59-1.235 2.415-1.235 1.838 0 3.075 1.756 3.075 4.282 0 3.376-1.537 4.749-3.843 4.749-1.237 0-1.647-.551-1.647-1.73v-6.066ZM99.13 29.932c-.384-2.854-2.494-4.667-5.434-4.667-3.264 0-5.763 2.442-5.763 5.655 0 3.157 2.413 5.517 5.652 5.517 2.499 0 4.612-1.372 5.545-3.596h-.465c-.99 1.51-2.197 2.253-3.707 2.253-1.921 0-3.843-1.76-3.678-5.162h7.85Zm-7.85-.632c.08-1.977.933-3.293 2.197-3.293 1.262 0 2.194 1.372 2.305 3.293H91.28ZM109.068 29.273c-.904-.878-1.62-1.344-2.334-1.344-.933 0-1.511.384-2.305 1.48v4.229c0 1.238.246 1.619 1.756 1.92v.469h-6.587v-.468c1.375-.33 1.727-.743 1.727-1.921v-5.463c0-1.32-.573-1.922-1.89-2.032v-.468l4.527-.41h.467v3.295h.054c1.017-2.252 2.143-3.294 3.435-3.294.683 0 1.342.302 1.837.877l-.687 3.13ZM126.551 25.675v.468c1.318.274 1.618 1.098.686 3.295l-1.429 3.32-2.195-4.527c-.634-1.32-.634-1.924.546-2.088v-.468h-9.17v-4.006h-.521c-1.457 1.867-3.159 3.514-4.448 4.31v.523h1.867v6.642c0 2.36 1.564 3.293 3.513 3.293 1.538 0 2.556-.55 3.321-1.841l-.327-.3c-.494.579-.965.825-1.508.825-1.457 0-1.897-.988-1.897-2.665v-5.954h2.778c1.508 0 1.948.548 2.607 1.948l3.785 7.987c-1.261 3.405-2.358 4.778-4.28 4.778-.413 0-.742-.028-1.401-.25l-.63 3.13c.386.057.604.057.878.057 2.139 0 3.321-.908 4.42-3.432l5.216-11.915c.85-1.921 1.18-2.303 2.496-2.662v-.468h-4.307ZM73.428 54.648c.191 1.399.881 2.194 2.445 2.497v.467h-7.935v-.467c1.756-.438 2.061-1.452 1.756-3.538l-1.317-9.173h-.055L63.11 57.612h-.578L57.37 44.434h-.053l-1.4 9.446c-.276 1.868.081 3.129 1.894 3.265v.467h-5.818v-.467c1.727-.08 2.467-1.07 2.851-3.538l1.595-10.486c-.633-.66-1.51-1.073-2.335-1.1v-.467h5.793l4.2 10.594 4.252-10.594h5.44v.467c-1.649.303-2.033 1.125-1.816 2.607l1.456 10.02ZM77.133 49.517c0-1.154-.383-1.564-1.62-1.786v-.467l4.255-.414h.468v7.633c0 1.238.794 1.813 1.923 1.813 1.04 0 1.673-.438 2.578-1.87v-5.158c0-.853-.551-1.345-1.621-1.537v-.467l4.255-.414h.468v8.236c0 1.372.275 1.702 1.648 2.059v.467l-4.75.41V55.5h-.054c-1.154 1.757-2.446 2.524-4.118 2.524-2.14 0-3.432-1.18-3.432-3.156v-5.35ZM91.873 48.088h-1.867v-.522c1.289-.794 2.994-2.442 4.445-4.307h.526v4.005h3.403v.824h-3.403v5.955c0 1.678.438 2.664 1.892 2.664.549 0 1.016-.248 1.51-.824l.33.303c-.77 1.29-1.783 1.838-3.323 1.838-1.95 0-3.513-.931-3.513-3.294v-6.642ZM100.382 49.517c0-1.154-.384-1.564-1.621-1.786v-.467l4.258-.414h.467v7.633c0 1.238.795 1.813 1.919 1.813 1.043 0 1.675-.438 2.581-1.87v-5.158c0-.853-.549-1.345-1.619-1.537v-.467l4.253-.414h.468v8.236c0 1.372.275 1.702 1.648 2.059v.467l-4.75.41V55.5h-.054c-1.154 1.757-2.444 2.524-4.118 2.524-2.14 0-3.432-1.18-3.432-3.156v-5.35ZM122.944 50.722c0-2.854-2.332-3.872-4.556-3.872-2.416 0-4.089 1.294-4.639 3.518h.413c.657-1.156 1.7-1.73 3.102-1.73 1.867 0 2.58.879 2.58 2.719-2.526.929-6.641 1.15-6.641 3.95 0 1.51 1.399 2.716 3.101 2.716 1.26 0 2.222-.3 3.265-1.235l.248-.216c.52 1.04 1.235 1.45 2.497 1.45 1.511 0 2.416-.712 2.526-2.001h-.437c-.113.632-.387.959-.827.959-.465 0-.632-.408-.632-1.37v-4.888Zm-3.127 5.107c-.716.713-1.318 1.072-1.948 1.072-.854 0-1.429-.742-1.429-1.867 0-1.4.794-2.032 3.377-3.131v3.926ZM126.981 43.259c0-1.456-.468-1.978-1.949-2.062v-.464l4.583-.303h.468v14.656c0 1.373.302 1.703 1.837 2.059v.468h-6.888v-.468c1.511-.243 1.949-.74 1.949-2.06V43.26ZM132.302 55.642h.807v2.097h.322v-2.097h.807v-.287h-1.936v.287ZM136.748 57.74v-1.407c0-.072.005-.371.005-.599h-.005l-.671 2.005h-.32l-.669-2h-.008c0 .223.008.522.008.594v1.407h-.313v-2.385h.463l.681 2.019h.006l.676-2.019h.459v2.385h-.312Z" fill="#4E4E4E"/></svg>