<svg width="146" height="45" fill="none" xmlns="http://www.w3.org/2000/svg"><path d="M63.886 22.132c-.953 0-1.797-.11-2.53-.33a3.957 3.957 0 01-1.848-1.21c-.499-.587-.88-1.423-1.144-2.508-.25-1.1-.374-2.523-.374-4.268 0-1.687.132-3.065.396-4.136.279-1.085.675-1.921 1.188-2.508a4.037 4.037 0 011.87-1.254c.733-.235 1.562-.352 2.486-.352.733 0 1.415.044 2.046.132.645.073 1.225.169 1.738.286.513.103.946.22 1.298.352v2.53a12.732 12.732 0 00-1.078-.176c-.44-.059-.946-.103-1.518-.132a23.55 23.55 0 00-1.804-.066c-.616 0-1.144.073-1.584.22-.425.132-.77.389-1.034.77-.25.367-.44.902-.572 1.606-.117.704-.176 1.62-.176 2.75 0 1.085.051 1.98.154 2.684.117.704.3 1.254.55 1.65.25.381.587.653 1.012.814.44.147.99.22 1.65.22 1.115 0 2.017-.022 2.706-.066a23.838 23.838 0 001.694-.154v2.508c-.396.132-.85.25-1.364.352a17.41 17.41 0 01-1.694.198c-.616.059-1.305.088-2.068.088zm12.104-.022c-.968 0-1.797-.095-2.486-.286-.69-.205-1.254-.543-1.694-1.012-.426-.47-.74-1.093-.946-1.87-.19-.777-.286-1.738-.286-2.882 0-1.203.095-2.193.286-2.97.205-.792.52-1.408.946-1.848.44-.455 1.004-.77 1.694-.946.704-.19 1.532-.286 2.486-.286.982 0 1.818.095 2.508.286.69.19 1.246.513 1.672.968.44.44.755 1.056.946 1.848.205.777.308 1.76.308 2.948 0 1.173-.096 2.156-.286 2.948-.19.777-.499 1.393-.924 1.848-.426.455-.99.777-1.694.968-.69.19-1.533.286-2.53.286zm0-2.596c.396 0 .726-.037.99-.11.278-.073.498-.22.66-.44.176-.235.308-.587.396-1.056.088-.47.132-1.085.132-1.848 0-.777-.044-1.393-.132-1.848-.088-.47-.22-.814-.396-1.034a1.122 1.122 0 00-.66-.462 3.767 3.767 0 00-.99-.11c-.382 0-.712.037-.99.11a1.218 1.218 0 00-.66.462c-.176.22-.308.565-.396 1.034-.074.455-.11 1.07-.11 1.848 0 .763.036 1.379.11 1.848.088.47.22.821.396 1.056.176.22.396.367.66.44.278.073.608.11.99.11zM83.584 22V10.186h2.508l.748 1.804a7.089 7.089 0 011.43-1.386c.543-.381 1.18-.572 1.914-.572.161 0 .323.007.484.022.176.015.337.044.484.088v3.344a9.644 9.644 0 00-.704-.066 5.506 5.506 0 00-.682-.044c-.425 0-.814.051-1.166.154a3.211 3.211 0 00-.946.418c-.279.176-.55.41-.814.704V22h-3.256zm9.303 5.214V10.186h2.728l.528 1.122c.278-.22.587-.425.924-.616a4.64 4.64 0 011.1-.484 3.94 3.94 0 011.254-.198c.718 0 1.342.14 1.87.418.542.279.982.682 1.32 1.21.337.528.586 1.173.748 1.936.161.748.242 1.591.242 2.53 0 1.261-.125 2.347-.374 3.256-.25.91-.682 1.606-1.298 2.09-.602.47-1.438.704-2.508.704-.558 0-1.13-.066-1.716-.198a6.364 6.364 0 01-1.562-.572v5.83h-3.256zm5.478-7.744c.337 0 .66-.088.968-.264.308-.19.55-.528.726-1.012.19-.484.286-1.18.286-2.09 0-.88-.088-1.57-.264-2.068-.162-.513-.389-.873-.682-1.078a1.675 1.675 0 00-1.034-.33c-.455 0-.873.073-1.254.22a7.73 7.73 0 00-.968.44v5.61c.293.176.638.315 1.034.418.396.103.792.154 1.188.154zm12.451 2.64c-.968 0-1.797-.095-2.486-.286-.689-.205-1.254-.543-1.694-1.012-.425-.47-.741-1.093-.946-1.87-.191-.777-.286-1.738-.286-2.882 0-1.203.095-2.193.286-2.97.205-.792.521-1.408.946-1.848.44-.455 1.005-.77 1.694-.946.704-.19 1.533-.286 2.486-.286.983 0 1.819.095 2.508.286.689.19 1.247.513 1.672.968.44.44.755 1.056.946 1.848.205.777.308 1.76.308 2.948 0 1.173-.095 2.156-.286 2.948-.191.777-.499 1.393-.924 1.848-.425.455-.99.777-1.694.968-.689.19-1.533.286-2.53.286zm0-2.596c.396 0 .726-.037.99-.11.279-.073.499-.22.66-.44.176-.235.308-.587.396-1.056.088-.47.132-1.085.132-1.848 0-.777-.044-1.393-.132-1.848-.088-.47-.22-.814-.396-1.034a1.12 1.12 0 00-.66-.462 3.767 3.767 0 00-.99-.11c-.381 0-.711.037-.99.11a1.218 1.218 0 00-.66.462c-.176.22-.308.565-.396 1.034-.073.455-.11 1.07-.11 1.848 0 .763.037 1.379.11 1.848.088.47.22.821.396 1.056.176.22.396.367.66.44.279.073.609.11.99.11zM118.41 22V10.186h2.508l.748 1.804a7.107 7.107 0 011.43-1.386c.543-.381 1.181-.572 1.914-.572.162 0 .323.007.484.022.176.015.338.044.484.088v3.344a9.608 9.608 0 00-.704-.066 5.498 5.498 0 00-.682-.044c-.425 0-.814.051-1.166.154a3.224 3.224 0 00-.946.418c-.278.176-.55.41-.814.704V22h-3.256zm11.381.132c-.894 0-1.62-.264-2.178-.792-.557-.528-.836-1.261-.836-2.2v-1.056c0-.895.316-1.628.946-2.2.631-.587 1.614-.88 2.948-.88h3.014v-.814c0-.367-.066-.667-.198-.902-.132-.25-.381-.425-.748-.528-.352-.117-.894-.176-1.628-.176h-3.542v-1.892a16.59 16.59 0 011.98-.462c.763-.132 1.68-.198 2.75-.198.983 0 1.819.117 2.508.352.704.235 1.232.638 1.584 1.21.367.572.55 1.364.55 2.376V22h-2.574l-.528-1.254c-.102.117-.278.25-.528.396-.249.147-.557.3-.924.462a7.374 7.374 0 01-1.21.374 6.08 6.08 0 01-1.386.154zm1.65-2.266c.147 0 .308-.015.484-.044l.572-.132c.206-.059.389-.11.55-.154a5.66 5.66 0 00.418-.154 2.92 2.92 0 00.22-.088v-2.75l-1.98.132c-.572.044-.997.19-1.276.44-.264.25-.396.587-.396 1.012v.484c0 .293.059.535.176.726.132.19.301.33.506.418.22.073.462.11.726.11zm11.634 2.178c-.836 0-1.533-.132-2.09-.396a2.641 2.641 0 01-1.21-1.254c-.264-.572-.396-1.305-.396-2.2V5.214h3.256V17.71c0 .44.044.792.132 1.056.088.25.22.433.396.55.191.117.425.198.704.242l.902.132v2.354h-1.694zM64.724 39.108c-.792 0-1.482-.09-2.07-.27a2.967 2.967 0 01-1.458-.972c-.384-.48-.672-1.164-.864-2.052-.18-.888-.27-2.046-.27-3.474 0-1.344.096-2.448.288-3.312.192-.876.48-1.56.864-2.052a3.086 3.086 0 011.494-1.026c.6-.204 1.308-.306 2.124-.306.372 0 .786.024 1.242.072.456.048.906.108 1.35.18.444.06.846.138 1.206.234v1.062a11.882 11.882 0 00-.864-.108 27.87 27.87 0 00-1.278-.09 18.776 18.776 0 00-1.44-.054c-.636 0-1.182.072-1.638.216a2.151 2.151 0 00-1.116.81c-.276.384-.48.93-.612 1.638-.132.708-.198 1.626-.198 2.754 0 1.14.06 2.076.18 2.808.132.72.336 1.272.612 1.656.276.384.636.648 1.08.792.444.144.996.216 1.656.216.9 0 1.638-.024 2.214-.072a17.927 17.927 0 001.404-.162v1.08c-.36.084-.762.162-1.206.234-.432.06-.882.108-1.35.144a17.15 17.15 0 01-1.35.054zm9.743 0c-.696 0-1.308-.072-1.836-.216a2.817 2.817 0 01-1.296-.756c-.348-.36-.606-.858-.774-1.494-.168-.648-.252-1.47-.252-2.466 0-1.008.084-1.83.252-2.466.168-.648.426-1.146.774-1.494.348-.36.78-.606 1.296-.738.528-.144 1.14-.216 1.836-.216.696 0 1.302.072 1.818.216.528.144.966.396 1.314.756.348.348.606.846.774 1.494.18.636.27 1.452.27 2.448 0 1.008-.09 1.836-.27 2.484-.168.636-.426 1.134-.774 1.494-.336.348-.768.594-1.296.738-.528.144-1.14.216-1.836.216zm0-1.17c.444 0 .834-.042 1.17-.126a1.66 1.66 0 00.864-.504c.228-.252.402-.63.522-1.134.12-.504.18-1.17.18-1.998 0-.84-.06-1.506-.18-1.998s-.294-.864-.522-1.116a1.66 1.66 0 00-.864-.504 4.854 4.854 0 00-1.17-.126 4.94 4.94 0 00-1.188.126 1.657 1.657 0 00-.846.504c-.228.252-.402.624-.522 1.116-.12.492-.18 1.158-.18 1.998 0 .828.06 1.494.18 1.998s.294.882.522 1.134c.228.252.51.42.846.504a4.94 4.94 0 001.188.126zM83.28 39l-3.618-9.612h1.458l2.988 8.28 3.078-8.28h1.44L84.9 39h-1.62zm10.38.108c-1.009 0-1.807-.15-2.395-.45-.576-.3-.99-.81-1.242-1.53s-.378-1.704-.378-2.952c0-1.272.126-2.262.378-2.97.264-.72.69-1.224 1.278-1.512.588-.288 1.38-.432 2.376-.432.852 0 1.542.096 2.07.288.54.192.936.522 1.188.99.264.456.396 1.092.396 1.908 0 .564-.114 1.02-.342 1.368-.216.336-.534.582-.954.738-.408.144-.894.216-1.458.216h-3.51c.012.78.096 1.41.252 1.89.156.468.438.81.846 1.026.42.204 1.032.306 1.836.306h3.096v.864c-.552.072-1.092.132-1.62.18a20.31 20.31 0 01-1.818.072zm-2.61-5.274h3.42c.54 0 .935-.096 1.187-.288.264-.204.396-.564.396-1.08 0-.552-.084-.978-.252-1.278a1.271 1.271 0 00-.756-.648c-.336-.132-.792-.198-1.368-.198-.672 0-1.2.102-1.584.306-.384.192-.654.54-.81 1.044-.156.504-.234 1.218-.234 2.142zM99.724 39v-9.612h1.08l.342 1.674a6.265 6.265 0 011.44-1.278c.54-.336 1.158-.504 1.854-.504.168 0 .324.006.468.018.156.012.3.036.432.072v1.458a5.907 5.907 0 00-.504-.054 4.082 4.082 0 00-.54-.036c-.444 0-.84.054-1.188.162-.348.108-.678.27-.99.486-.312.216-.636.48-.972.792V39h-1.422zm8.939.108c-.708 0-1.29-.21-1.746-.63-.456-.42-.684-1.014-.684-1.782v-.684c0-.756.246-1.368.738-1.836.504-.468 1.26-.702 2.268-.702h3.258v-1.188c0-.396-.072-.732-.216-1.008-.132-.288-.378-.51-.738-.666-.348-.156-.858-.234-1.53-.234h-2.988v-.846a18.989 18.989 0 013.438-.288c.78-.012 1.428.084 1.944.288.516.204.894.528 1.134.972.252.432.378 1.002.378 1.71V39h-1.098l-.27-1.098c-.048.048-.198.132-.45.252-.24.12-.552.258-.936.414a9.83 9.83 0 01-1.224.378 5.255 5.255 0 01-1.278.162zm.594-1.062c.216.012.462-.012.738-.072.276-.06.558-.126.846-.198.288-.084.552-.168.792-.252.252-.084.456-.156.612-.216.156-.06.24-.09.252-.09v-3.024l-2.934.126c-.684.024-1.176.192-1.476.504-.288.312-.432.714-.432 1.206v.432c0 .384.078.696.234.936.168.228.372.39.612.486.252.096.504.15.756.162zm9.7 5.364c-.624 0-1.176-.09-1.656-.27a2.38 2.38 0 01-1.116-.792c-.264-.348-.396-.786-.396-1.314v-.432c0-.552.15-1.014.45-1.386a2.82 2.82 0 011.17-.828 3.761 3.761 0 011.44-.288l.36.576c-.36 0-.696.06-1.008.18-.312.108-.57.288-.774.54-.192.252-.288.576-.288.972v.396c0 .576.192.984.576 1.224.384.252.906.378 1.566.378h2.232c.72 0 1.284-.138 1.692-.414.42-.276.63-.708.63-1.296v-.36c0-.336-.066-.624-.198-.864s-.354-.426-.666-.558c-.3-.132-.726-.198-1.278-.198h-2.898c-.744 0-1.326-.156-1.746-.468-.408-.324-.612-.738-.612-1.242 0-.48.138-.858.414-1.134.288-.276.69-.468 1.206-.576-.444-.18-.792-.42-1.044-.72a2.725 2.725 0 01-.522-.99 4.176 4.176 0 01-.144-1.08c0-.744.15-1.344.45-1.8.3-.456.726-.786 1.278-.99.564-.204 1.224-.306 1.98-.306h5.13v.81l-2.16.18c.156.108.33.252.522.432.192.168.354.414.486.738.144.312.216.744.216 1.296 0 .492-.108.96-.324 1.404-.204.444-.552.81-1.044 1.098-.492.276-1.17.414-2.034.414h-1.53c-.504 0-.906.078-1.206.234-.288.144-.432.408-.432.792 0 .288.108.492.324.612.216.12.444.18.684.18h3.186c.744 0 1.356.096 1.836.288.492.192.858.486 1.098.882.252.384.378.876.378 1.476v.396c0 .876-.3 1.56-.9 2.052-.588.504-1.47.756-2.646.756h-2.682zm.666-8.766h1.08c.612 0 1.074-.09 1.386-.27.324-.192.546-.438.666-.738s.18-.624.18-.972c0-.54-.09-.966-.27-1.278a1.423 1.423 0 00-.72-.684 2.552 2.552 0 00-1.08-.216h-1.026c-.684 0-1.224.156-1.62.468-.384.3-.576.828-.576 1.584 0 .744.174 1.284.522 1.62.36.324.846.486 1.458.486zm11.02 4.464c-1.008 0-1.806-.15-2.394-.45-.576-.3-.99-.81-1.242-1.53s-.378-1.704-.378-2.952c0-1.272.126-2.262.378-2.97.264-.72.69-1.224 1.278-1.512.588-.288 1.38-.432 2.376-.432.852 0 1.542.096 2.07.288.54.192.936.522 1.188.99.264.456.396 1.092.396 1.908 0 .564-.114 1.02-.342 1.368-.216.336-.534.582-.954.738-.408.144-.894.216-1.458.216h-3.51c.012.78.096 1.41.252 1.89.156.468.438.81.846 1.026.42.204 1.032.306 1.836.306h3.096v.864c-.552.072-1.092.132-1.62.18a20.31 20.31 0 01-1.818.072zm-2.61-5.274h3.42c.54 0 .936-.096 1.188-.288.264-.204.396-.564.396-1.08 0-.552-.084-.978-.252-1.278a1.271 1.271 0 00-.756-.648c-.336-.132-.792-.198-1.368-.198-.672 0-1.2.102-1.584.306-.384.192-.654.54-.81 1.044-.156.504-.234 1.218-.234 2.142z" fill="#123456"/><path d="M51.852 34.508a64.894 64.894 0 00-26.025 1.052A68.919 68.919 0 010 36.848v3.482a75.37 75.37 0 009.576.671 81.485 81.485 0 0016.921-2.05 60.92 60.92 0 0125.392-.942v-3.5h-.037zm0-6.652a64.892 64.892 0 00-26.025 1.052A69.698 69.698 0 010 30.196v3.482c3.175.42 6.373.639 9.576.653a80.27 80.27 0 0016.921-2.05 61.666 61.666 0 0125.392-.943v-3.482h-.037zm-.002-6.665a62.228 62.228 0 00-24.32.708v3.518a59.632 59.632 0 0124.32-.743V21.19zm0-6.675a62.936 62.936 0 00-24.32.707v3.519a59.689 59.689 0 0124.32-.726v-3.5zm0-6.65a62.59 62.59 0 00-24.32.707v3.519a59.562 59.562 0 0124.302-.744V7.866h.018z" fill="#C12E27"/><path d="M0 23.54v3.465a67.85 67.85 0 0024.067-.907v-3.5A67.106 67.106 0 010 23.54zm0-6.673v3.482a75.74 75.74 0 009.576.671 72.877 72.877 0 0014.51-1.578v-3.518A66.325 66.325 0 010 16.867zM0 10.2v3.483c3.175.422 6.373.64 9.576.653a72.957 72.957 0 0014.51-1.56V9.258A67.106 67.106 0 010 10.2z" fill="#144576"/></svg>