<svg width="48" height="48" viewBox="0 0 48 48" xmlns="http://www.w3.org/2000/svg"><g fill="none" fill-rule="evenodd"><path fill-opacity=".01" fill="#FFF" d="M0 0h48v48H0z"/><path d="M24 9.23c8.157 0 14.77 6.613 14.77 14.77S32.156 38.77 24 38.77 9.23 32.156 9.23 24 15.844 9.23 24 9.23zm.006 17.383L12.95 31.189l.061.095a13.13 13.13 0 0 0 10.845 5.92h.197a13.158 13.158 0 0 0 10.996-5.992l.06-.094-11.103-4.505zm-.642-15.732l-.103.005a13.184 13.184 0 0 0-10.66 6.57 13.125 13.125 0 0 0-.369 12.476l.067.13 9.304-7.519 1.76-11.662zm1.302.003l1.678 11.818 9.407 7.28.071-.142a13.132 13.132 0 0 0-.334-12.222l-.106-.186a13.174 13.174 0 0 0-10.605-6.543l-.111-.005z" fill="#000" fill-rule="nonzero"/></g></svg>