<svg width="48" height="48" viewBox="0 0 48 48" xmlns="http://www.w3.org/2000/svg"><g fill="none" fill-rule="evenodd"><path fill-opacity=".01" fill="#FFF" d="M0 0h48v48H0z"/><path d="M36.414 16.17l-.33-.378c-3.015-3.266-7.962-3.977-12.107-3.977-4.193 0-9.282.71-12.25 4.166l-.14.19c-1.461 1.751-2.356 4.26-2.356 7.62 0 10.367 8.385 12.024 14.746 12.024 6.407 0 14.792-1.657 14.792-12.023 0-3.361-.895-5.87-2.355-7.621m-2.746 1.768l-.128-.206c-2.026-3.03-5.7-3.74-9.563-3.74-3.863 0-7.633.757-9.611 3.834l-.213.37c3.4 1.953 7.256 1.988 9.824 6.92 2.358-5.083 6.257-5.154 9.69-7.178m-14.826 5.71c2.262.947 3.77 2.273 5.136 5.255 1.366-2.982 2.826-4.497 5.134-5.443l5.805-2.09.038.148c.093.663.14 1.468.14 2.273 0 8.237-5.417 9.893-11.117 9.846-5.701.047-11.072-1.61-11.072-9.846 0-.615 0-1.231.094-1.752l.084-.348 5.758 1.958" fill="#1A171B"/></g></svg>