<svg width="48" height="48" viewBox="0 0 48 48" xmlns="http://www.w3.org/2000/svg"><g fill="none" fill-rule="evenodd"><path fill-opacity=".01" fill="#FFF" d="M0 0h48v48H0z"/><path d="M23.823 10.338c6.592 0 12.14 4.187 13.814 9.884.47.062.934.127 1.393.197 0 0 .78.02.797 1.02.009 0 .123 3.391-.026 4.788 0 .01-.018.967-.833 1.036 0 0-.48.076-1.343.184-1.686 5.678-7.225 9.845-13.802 9.845-6.601 0-12.156-4.196-13.82-9.906a19.68 19.68 0 0 1-1.112-.197c-.045-.023-.943.068-1.011-1.019-.093-1.019-.23-4.03 0-4.936 0-.045.068-.747 1.08-.928.36-.074.71-.145 1.09-.218 1.72-5.63 7.233-9.75 13.773-9.75zm-9.98 17.454c1.648 3.651 5.496 6.212 9.98 6.212 4.464 0 8.297-2.54 9.957-6.166-2.601.21-6.007.386-9.82.325 0 0-5.417-.024-10.116-.371zm19.287-5.896h-1.814v3.379h1.044v-2.29l1.32 2.29h1.648v-3.38h-1.044v2.344l-1.154-2.343zm-19.069 0h-1.758v3.379h1.044V23.04l1.264 2.234h1.593v-3.38h-.879v2.399l-1.264-2.398zm4.122 0h-1.21v3.379h1.21v-3.38zm4.011 0h-2.472c-.935.218-.88 1.09-.88 1.09v.163c.11.818.77.872.77.872h1.868v.436h-2.583v.818h2.967c.66-.273.605-.981.605-.981v-.164c0-.654-.66-.872-.66-.872h-1.868v-.49h2.253v-.872zm3.957 0h-2.473c-.83.194-.88.904-.88 1.06v.193c.11.818.77.872.77.872h1.868v.436h-2.582v.818h2.967c.66-.273.605-.981.605-.981v-.164c0-.654-.66-.872-.66-.872h-1.868v-.49h2.253v-.872zm3.242 0h-1.374l-1.538 3.379h1.099l.274-.6h1.759l.33.6h1.098l-1.648-3.38zm-.66.926l.495.981h-.989l.495-.98zm-4.91-9.195c-4.397 0-8.18 2.464-9.88 6.003 3.663-.182 11.979-.466 19.849.187-1.654-3.64-5.494-6.19-9.97-6.19z" fill="#000"/></g></svg>