<svg width="116" height="64" fill="none" xmlns="http://www.w3.org/2000/svg"><path d="M40.316 61.496c-.98 1.07-2.06 1.77-3.366 2.12-.787.213-1.584.297-2.38.138-1.815-.364-2.756-1.627-2.799-3.77-.032-1.57-.009-3.141-.009-4.711 0-1.784.01-3.566-.008-5.349 0-.369.099-.5.476-.473.497.035 1.163-.167 1.45.08.336.287.102.963.108 1.467.01 2.595 0 5.19.008 7.784.002.406.026.81.073 1.213.196 1.646 1.032 2.317 2.675 2.098 1.296-.173 2.39-.765 3.294-1.705a1.14 1.14 0 0 0 .317-.856c-.012-3.181 0-6.355-.019-9.531 0-.446.12-.595.565-.55.356.035.716.035 1.072 0 .353-.031.405.114.404.425-.02 4.43-.03 8.86-.03 13.29 0 .34-.079.469-.437.438-.44-.037-1.019.138-1.294-.08-.292-.232-.063-.826-.09-1.26-.021-.21-.01-.422-.01-.768ZM8.137 51.57c1.301-1.425 2.789-2.204 4.613-2.3 2.23-.116 3.8 1.181 3.85 3.386.08 3.546.025 7.095.035 10.643 0 .228-.06.334-.298.297a.436.436 0 0 0-.054 0c-.514-.014-1.171.158-1.502-.093-.308-.237-.087-.924-.088-1.413-.01-2.664 0-5.33 0-7.996a5.99 5.99 0 0 0-.187-1.674c-.297-1.027-1.022-1.59-2.087-1.523a5.58 5.58 0 0 0-2.138.528 5.521 5.521 0 0 0-1.76 1.312.971.971 0 0 0-.258.71c.009 3.213 0 6.426.015 9.64 0 .403-.084.562-.517.518a7.024 7.024 0 0 0-1.18 0c-.295.018-.352-.097-.35-.364.014-4.466.022-8.932.02-13.398 0-.308.108-.38.401-.389 1.488-.042 1.488-.05 1.488 1.423l-.003.693ZM69.686 51.586c1.085-1.224 2.328-1.958 3.824-2.252a4.775 4.775 0 0 1 2.017 0c1.547.359 2.582 1.547 2.619 3.19.059 2.701.037 5.403.047 8.105 0 .882-.007 1.766 0 2.65 0 .251-.062.345-.328.332a8.24 8.24 0 0 0-1.18 0c-.385.035-.467-.106-.466-.468.016-3.002.009-6.004.01-9.005a7.519 7.519 0 0 0-.107-1.527c-.232-1.128-1.073-1.803-2.217-1.707a5.699 5.699 0 0 0-3.772 1.77 1.12 1.12 0 0 0-.333.842c.013 3.196 0 6.392.02 9.588 0 .431-.128.54-.537.506-.478-.04-1.121.153-1.395-.086-.322-.28-.1-.93-.099-1.416.011-4.044.04-8.087.043-12.13 0-.41.097-.57.524-.518.427.052.973-.17 1.239.084.266.255.061.804.084 1.223.017.22.007.45.007.82ZM24.223 63.921c-2.123-.01-3.862-.809-5.22-2.438-.234-.283-.182-.417.09-.602.337-.23.66-.48.965-.75.215-.19.322-.16.494.063.902 1.2 2.13 1.827 3.627 1.985 1.405.149 2.705-.562 3.057-1.696.34-1.101-.054-2.01-1.106-2.495-.955-.44-1.99-.65-2.988-.964a10.262 10.262 0 0 1-1.78-.699c-1.579-.843-2.253-2.114-2.044-3.837.099-.741.426-1.434.937-1.984a3.687 3.687 0 0 1 1.92-1.091c2.45-.56 4.577.069 6.355 1.847.257.256.22.408-.033.625-.321.277-.57.751-.929.849-.421.106-.566-.502-.89-.742-1.1-.824-2.29-1.278-3.686-1.008-.893.173-1.529.797-1.646 1.59-.137.941.225 1.62 1.122 2.07.992.498 2.092.668 3.14 1.001.475.145.941.32 1.394.523 1.556.722 2.416 1.901 2.36 3.625-.061 1.776-.958 3.018-2.625 3.698a6.186 6.186 0 0 1-2.514.43ZM82.874 56.485c-.03.954.018 1.898.293 2.824.419 1.416 1.2 2.494 2.752 2.767 1.552.274 2.779-.362 3.731-1.56.13-.167.253-.34.365-.52.429-.675.429-.676 1.153-.3 1.007.522 1.005.521.384 1.506-2.193 3.478-7.212 3.25-9.118.943-.8-.97-1.242-2.089-1.43-3.305-.344-2.227-.328-4.431.596-6.541.918-2.092 2.79-3.181 5.289-3.113 2.057.055 3.982 1.412 4.746 3.319.148.37.138.564-.315.65-.4.084-.79.206-1.167.364-.302.12-.41.047-.514-.258-.449-1.32-1.389-2.095-2.783-2.305-1.34-.201-2.37.313-3.103 1.41-.574.858-.774 1.847-.877 2.85-.038.419-.002.846-.002 1.269ZM2.338 53.846c0 3.087-.007 6.173.01 9.26 0 .388-.081.537-.497.5a8.52 8.52 0 0 0-1.336 0c-.362.026-.439-.107-.437-.44.015-2.152.009-4.304.009-6.456V44.75c0-.681 0-.681.714-.681.357 0 .717.024 1.073-.007.379-.033.478.106.474.471-.018 1.803-.007 3.599-.007 5.397l-.003 3.916ZM48.14 52.461c.5-.819.952-1.614 1.657-2.242.75-.674 1.65-.936 2.65-.936.276 0 .322.106.322.343-.015.44-.013.882 0 1.323.007.227-.024.349-.31.352-1.375.02-2.36.742-3.08 1.823-.78 1.154-1.299 2.386-1.247 3.843.072 2.045.01 4.096.027 6.144 0 .37-.05.547-.482.503-.494-.051-1.162.156-1.448-.094-.333-.288-.101-.961-.108-1.466-.01-4.03 0-8.053-.018-12.08 0-.416.107-.569.53-.519.488.057 1.146-.212 1.426.106.242.276.074.907.08 1.378.005.51 0 1.016 0 1.522ZM112.211 60.561v2.956c0 .212.087.466-.304.479-.392.013-.307-.25-.307-.457a342.335 342.335 0 0 1 0-3.654c0-.155-.146-.448.188-.437.277.01.636-.192.788.293.322 1.04.703 2.064 1.059 3.094.034.097.079.193.159.383.405-1.185.781-2.285 1.158-3.383.12-.347.587-.537.929-.393.166.069.108.201.108.31 0 1.308 0 2.614.005 3.924 0 .205-.028.324-.286.318-.259-.007-.277-.145-.276-.338v-3.208c-.132.052-.16.15-.195.257-.322.967-.655 1.933-.981 2.9-.075.223-.148.395-.464.395-.317 0-.389-.173-.463-.397-.334-1.013-.67-2.027-1.006-3.04l-.112-.002ZM108.363 61.96c0-.494-.034-.99.01-1.479.04-.443-.14-.545-.536-.504-.265.028-.537-.008-.802.009-.245.016-.293-.096-.296-.312 0-.238.135-.24.309-.24h3.152c.202 0 .33.02.329.279-.001.258-.136.286-.334.27h-.054c-.388.015-.912-.118-1.128.078-.259.237-.077.762-.083 1.167-.012.792 0 1.584 0 2.376 0 .177.031.34-.253.346-.285.005-.322-.118-.314-.347.008-.553 0-1.094 0-1.644ZM105.651.616c0-.53-.143-.616-.643-.616-17.383.014-34.766.018-52.15.012C35.423.012 17.987.008.55.002.107.001 0 .1 0 .541c.013 13.281.013 26.561 0 39.841 0 .472.12.567.581.566 34.82-.01 69.639-.01 104.458 0 .484 0 .61-.113.61-.599-.015-13.243-.014-26.488.002-39.734Zm-89.74 31.312c-.531.066-1.066.101-1.601.106-4.15-.018-7.003-2.026-8.39-5.874-.147-.41-.06-.53.342-.637.583-.159 1.156-.352 1.716-.576.297-.113.413-.053.515.252.63 1.87 1.725 3.393 3.636 4.116 1.954.743 3.909.627 5.652-.602 2.321-1.635 2.011-5.339-.506-6.646a34.387 34.387 0 0 0-4.851-2.036c-1.676-.567-3.302-1.272-4.536-2.585-2.234-2.379-1.744-6.58.973-8.643 2.541-1.929 7.65-2.021 10.242.748.924.989 1.548 2.135 1.967 3.408.085.256 0 .295-.2.35-.6.163-1.204.318-1.791.516-.285.097-.354.025-.44-.237-.402-1.213-1.016-2.303-2.113-3.032-1.66-1.106-3.477-1.266-5.302-.553-2.498.978-2.905 4.603-.766 6.28.938.738 2.038 1.128 3.144 1.532 1.615.593 3.26 1.112 4.784 1.924 1.704.91 2.997 2.16 3.353 4.136.747 4.124-1.43 7.44-5.828 8.053Zm21.287-.276a33.477 33.477 0 0 0-1.982 0c-.277.007-.359-.09-.376-.362-.04-.636-.126-1.262-.204-2.01-1.11 1.204-2.35 1.997-3.843 2.356-1.768.425-3.458.379-4.958-.833-2.28-1.843-2.224-5.9.525-7.804 1.619-1.123 3.448-1.725 5.328-2.212.895-.231 1.798-.43 2.704-.609.277-.054.35-.162.335-.415-.021-.37.017-.743-.027-1.11-.157-1.295-1.134-2.174-2.655-2.42-2.079-.337-3.918.508-4.973 2.316-.158.27-.266.283-.517.135-.474-.279-.965-.53-1.458-.772-.254-.124-.282-.24-.132-.481 1.205-1.95 2.954-3.075 5.244-3.313a9.21 9.21 0 0 1 2.932.14c2.662.584 4.038 2.263 4.056 4.994.018 2.757 0 5.507 0 8.26 0 1.25-.071 2.507.322 3.727.089.263.026.426-.322.413Zm11.14-22.205c.013.26-.095.27-.323.236a11.634 11.634 0 0 0-1.433-.146c-1.246-.036-1.974.57-2.06 1.788-.065.933-.011 1.871-.03 2.806 0 .318.196.272.389.272.929 0 1.858.026 2.789-.012.445-.02.544.137.512.53a8.438 8.438 0 0 0 0 1.166c.016.276-.071.362-.355.357-.911-.018-1.824.017-2.733-.017-.435-.017-.57.089-.564.542.025 2.347.01 4.695.012 7.043 0 2.366-.008 4.73.008 7.096 0 .372-.052.546-.484.506a8.034 8.034 0 0 0-1.445 0c-.423.037-.488-.12-.485-.5.012-4.288.015-8.578.008-12.869 0-.458-.02-.918.007-1.378.019-.333-.065-.46-.43-.443-.713.03-1.428 0-2.145.015-.3.008-.413-.076-.397-.382.027-.424.027-.849 0-1.273-.025-.349.125-.411.437-.404.713.02 1.429-.006 2.145.013.304.009.389-.086.393-.386.018-1.092-.074-2.185.084-3.277.321-2.192 1.838-3.419 4.095-3.266.125.008.25.021.374.037 2.15.278 1.527-.025 1.63 1.946Zm14.254 19.236c-1.404 2.19-3.508 3.114-6.042 3.213-1.91.077-3.691-.294-5.14-1.641-1.25-1.16-1.863-2.651-2.152-4.273-.44-2.46-.437-4.92.395-7.311.816-2.351 2.32-4.009 4.908-4.493 3.306-.62 6.238 1.02 7.396 4.145.573 1.546.704 3.154.724 4.783 0 .364-.193.337-.438.337-1.716-.004-3.43-.004-5.142 0-1.696 0-3.393.009-5.09-.007-.333 0-.454.064-.454.424 0 1.287.18 2.53.805 3.676 1.338 2.455 4.167 2.814 6.354 1.794a5.048 5.048 0 0 0 2.406-2.243c.133-.253.259-.347.52-.143.216.153.44.295.672.425.798.506.798.507.278 1.314Zm41.431 11.256c-12.735-.01-25.47-.01-38.204 0-.445 0-.56-.106-.559-.55.012-12.605.012-25.212 0-37.819 0-.466.148-.53.569-.53 6.376.014 12.752.018 19.129.01 6.358 0 12.717-.003 19.075-.01.448 0 .597.074.597.565-.017 12.589-.017 25.177 0 37.767-.002.498-.161.568-.607.567ZM64.29 63.262c-.239-.804-.276-1.629-.276-2.46 0-2.578.013-5.156-.016-7.733-.018-1.625-.98-2.893-2.517-3.461-.834-.309-1.705-.363-2.575-.363-2 0-3.56.848-4.73 2.439-.285.386-.34.641.197.832.295.123.578.276.842.455.246.148.39.187.572-.134.572-1.011 1.475-1.596 2.62-1.825 2.14-.425 3.623.724 3.597 2.766 0 .335-.15.416-.417.473-.816.177-1.64.33-2.442.556-1.596.45-3.174.954-4.436 2.096-1.173 1.06-1.52 2.404-1.241 3.898.267 1.438 1.16 2.426 2.574 2.83 1.637.469 3.167.057 4.588-.81.468-.285.845-.679 1.312-1.104.056.601.114 1.092.142 1.585.016.284.114.404.421.39.482-.028.965-.028 1.447 0 .372.026.43-.123.338-.43Zm-3.173-2.618c-1.01.683-2.013 1.328-3.278 1.43-.935.073-1.716-.201-2.178-1.028-.46-.827-.39-1.697.186-2.484.521-.713 1.287-1.096 2.082-1.427 1.18-.494 2.436-.767 3.683-1.06.33-.078.392.054.38.346-.017.53 0 1.06 0 1.591 0 .3-.043.609.01.9.142.81-.236 1.294-.881 1.732h-.004ZM104.028 60.094a3.805 3.805 0 0 1-.411-.243c-.26-.212-.435-.229-.595.127-.19.424-.525.751-.868 1.06-1.778 1.614-5.497 1.845-6.6-1.704a7 7 0 0 1-.268-1.931c-.008-.373.056-.513.484-.504 1.356.034 2.713.013 4.077.013 1.394 0 2.789-.012 4.178.009.335.005.412-.085.412-.41a11.986 11.986 0 0 0-.237-2.576c-.322-1.462-.923-2.771-2.163-3.718-2.18-1.663-6.738-1.62-8.231 2.623-.715 2.035-.727 4.114-.354 6.208.197 1.103.596 2.134 1.33 3.012 1.099 1.314 2.57 1.726 4.227 1.787 2.23.08 3.989-.742 5.277-2.535.531-.744.512-.757-.258-1.218Zm-8.721-5.302c.107-.825.28-1.63.731-2.35.716-1.137 1.76-1.658 3.111-1.57 1.254.081 2.121.743 2.668 1.83.347.689.452 1.436.537 2.192.038.354-.173.318-.39.318h-3.159c-1.035 0-2.07-.016-3.105.01-.358.005-.434-.115-.393-.426v-.004Z" fill="#14255C"/><path d="M69.853 22.866c.009 1.367.093 2.596.484 3.783.514 1.565 1.427 2.773 3.154 3.123 1.894.384 3.381-.337 4.564-1.778.33-.395.608-.829.827-1.292.12-.262.236-.268.471-.145.487.254.988.484 1.49.713.214.099.27.191.162.437-1.276 2.926-4.427 4.6-7.576 4.153-2.975-.425-4.76-2.11-5.52-4.87-.775-2.813-.764-5.653.183-8.442.875-2.578 3.043-4.266 5.556-4.453 2.983-.226 5.257.853 6.699 3.48.59 1.074.563 1.09-.58 1.452-.422.134-.881.424-1.262.344-.42-.085-.411-.706-.626-1.075-.815-1.406-1.998-2.191-3.647-2.155-1.679.036-2.853.882-3.56 2.368-.682 1.418-.8 2.944-.819 4.357ZM34.72 24.786c0 .458-.048.924.012 1.379.09.69-.18 1.14-.732 1.542-1.121.819-2.237 1.64-3.636 1.928-.997.205-1.99.246-2.838-.473-1.099-.93-1.23-2.591-.294-3.763.832-1.042 2.022-1.523 3.232-1.955 1.272-.454 2.593-.742 3.911-1.033.332-.074.352.06.348.318-.01.68-.003 1.369-.003 2.057ZM55.788 21.481c-1.25 0-2.5-.012-3.748.008-.361.006-.514-.066-.468-.458.18-1.536.537-2.996 1.824-4.03 1.795-1.442 4.565-.973 5.793.955.627.984.827 2.08.917 3.215.028.356-.195.306-.406.307l-3.912.003ZM96.462 19.08c-.977-3.259-3.326-4.952-6.708-4.983-3.155-.033-5.536 1.538-6.629 4.383-.511 1.331-.712 2.721-.75 4.067-.059.778.03 1.485.085 2.184.042.42.108.839.199 1.252.731 3.744 3.218 5.88 6.92 5.945 3.337.058 5.754-1.59 6.792-4.725.891-2.691.9-5.426.09-8.122Zm-2.66 7.953c-.677 1.85-2.173 2.847-4.077 2.863-1.948.012-3.417-.973-4.171-2.815-.536-1.312-.689-2.69-.667-4.073-.014-1.295.096-2.554.541-3.765.761-2.068 2.211-3.122 4.279-3.111 2.044.01 3.531 1.05 4.203 3.124.839 2.587.83 5.21-.109 7.78v-.003Z" fill="#14255C"/></svg>