<svg width="48" height="48" viewBox="0 0 48 48" xmlns="http://www.w3.org/2000/svg"><g fill="none" fill-rule="evenodd"><path fill-opacity=".01" fill="#FFF" d="M0 0h48v48H0z"/><path d="M19.725 21.002c-3.743-.558-6.357-1.825-6.357-3.3 0-.609.446-1.183 1.234-1.686a18.56 18.56 0 0 1 2.998-1.19c1.377-.353 3.016-.594 4.8-.686-1.273 1.174-2.267 3.707-2.675 6.862m6.8.2c-.809.067-1.655.103-2.525.103-.87 0-1.717-.036-2.526-.103.34-2.977 1.342-5.134 2.526-5.134 1.183 0 2.186 2.157 2.526 5.134m-.927-7.062c5.114.262 9.033 1.757 9.033 3.562 0 1.475-2.614 2.742-6.358 3.3-.407-3.155-1.401-5.688-2.675-6.862m2.875 9.765c5.115-.69 8.864-2.527 9.234-4.727 1.29 1.512 2.026 3.259 2.026 5.12 0 5.525-6.486 10.044-14.676 10.381 1.961-1.144 3.418-5.399 3.418-10.472 0-.101 0-.202-.002-.302m-7.113.193a34.735 34.735 0 0 0 5.278 0c-.121 3.755-1.257 6.698-2.64 6.698-1.382 0-2.517-2.943-2.638-6.698m-11.04-4.774c.508 2.135 4.203 3.907 9.205 4.581l-.002.302c0 5.063 1.45 9.31 3.406 10.465-8.113-.39-14.513-4.886-14.513-10.374 0-1.802.69-3.496 1.904-4.974M24 12.184c-10.196 0-18.462 5.29-18.462 11.816 0 6.525 8.266 11.815 18.462 11.815S42.462 30.525 42.462 24c0-6.526-8.266-11.815-18.462-11.815" fill="#000"/></g></svg>