<svg width="48" height="48" viewBox="0 0 48 48" xmlns="http://www.w3.org/2000/svg"><g fill="none" fill-rule="evenodd"><path fill-opacity=".01" fill="#FFF" d="M0 0h48v48H0z"/><path d="M25.114 7.385c9.148 0 16.61 7.46 16.61 16.622 0 9.135-7.462 16.609-16.61 16.609S8.492 33.142 8.492 24.007c0-9.162 7.474-16.622 16.622-16.622zm0 2.117c-7.978 0-14.499 6.52-14.499 14.512 0 7.978 6.521 14.485 14.5 14.485 7.977 0 14.498-6.507 14.498-14.485 0-7.992-6.521-14.512-14.499-14.512zm-.109 17.915l3.213 8.331.041.314a12.617 12.617 0 0 1-3.145.395c-1.157 0-2.273-.15-3.335-.45l.014-.259 3.212-8.33zm11.763-7.814c.517 1.375.79 2.86.79 4.41 0 4.793-2.737 8.959-6.712 11.041zm-23.402.273l5.772 15.042c-3.867-2.11-6.48-6.221-6.48-10.904 0-1.457.245-2.846.708-4.138zm5.554-6.671l3.662 10.087h5.146l3.649-10.047a12.535 12.535 0 0 1 3.294 2.805l-5.255 13.654-1.906-4.928h-4.996l-1.906 4.928-5.2-13.49a12.612 12.612 0 0 1 3.512-3.009zm6.194-1.648c1.089 0 2.165.136 3.186.409l-3.145 8.699-3.158-8.713a12.365 12.365 0 0 1 3.117-.395z" fill="#000"/></g></svg>